SplineFontDB: 3.0
FontName: Caulixtla008-Italic
FullName: Caulixtla008 Italic
FamilyName: Caulixtla008
Weight: Book
Copyright: (c) Copyright 1989-1992, Bitstream Inc., Cambridge, MA. You are hereby granted permission under all Bitstream propriety rights to use, copy, modify, sublicense, sell, and redistribute the 4 Bitstream Charter (r) Type 1 outline fonts and the 4 Courier Type 1 outline fonts for any purpose and without restriction; provided, that this notice is left intact on all copies of such fonts and that Bitstream's trademark is acknowledged as shown below on all unmodified copies of the 4 Charter Type 1 fonts: "BITSTREAM CHARTER is a registered trademark of Bitstream Inc." Infinity symbol from Source Serif Pro copyright 2014 Adobe OFL 1.1 licensed.
Version: 008
ItalicAngle: 11
UnderlinePosition: -210
UnderlineWidth: 118
Ascent: 1561
Descent: 487
InvalidEm: 0
sfntRevision: 0x00020000
LayerCount: 2
Layer: 0 1 "Back" 1
Layer: 1 1 "Fore" 0
XUID: [1021 590 -1373747595 25340]
StyleMap: 0x0001
FSType: 8
OS2Version: 3
OS2_WeightWidthSlopeOnly: 0
OS2_UseTypoMetrics: 0
CreationTime: 1373507889
ModificationTime: 1520668510
PfmFamily: 17
TTFWeight: 400
TTFWidth: 5
LineGap: 0
VLineGap: 0
Panose: 2 0 5 3 7 0 0 9 0 4
OS2TypoAscent: 1561
OS2TypoAOffset: 0
OS2TypoDescent: -487
OS2TypoDOffset: 0
OS2TypoLinegap: 446
OS2WinAscent: 1901
OS2WinAOffset: 0
OS2WinDescent: 483
OS2WinDOffset: 0
HheadAscent: 1901
HheadAOffset: 0
HheadDescent: -487
HheadDOffset: 0
OS2SubXSize: 1434
OS2SubYSize: 1331
OS2SubXOff: 0
OS2SubYOff: 287
OS2SupXSize: 1434
OS2SupYSize: 1331
OS2SupXOff: 0
OS2SupYOff: 977
OS2StrikeYSize: 125
OS2StrikeYPos: 492
OS2CapHeight: 671
OS2XHeight: 482
OS2Vendor: 'pyrs'
OS2CodePages: 00000001.00000000
OS2UnicodeRanges: 00000001.00000000.00000000.00000000
MarkAttachClasses: 1
DEI: 91125
TtTable: prep
SVTCA[y-axis]
MPPEM
PUSHW_1
 64
GT
IF
PUSHB_2
 1
 1
INSTCTRL
EIF
PUSHB_1
 1
PUSHW_2
 2048
 2048
MUL
WCVTF
PUSHB_2
 0
 5
WS
PUSHB_3
 23
 1
 0
LOOPCALL
PUSHB_2
 0
 5
WS
PUSHB_4

StartChar: exclam
Encoding: 33 33 4
Width: 692
GlyphClass: 2
Flags: W
LayerCount: 2
Fore
SplineSet
332 350 m 1,0,-1
 231 350 l 1,1,-1
 324 1133 l 2,2,3
 340 1266 340 1266 369.5 1332.5 c 128,-1,4
 399 1399 399 1399 483 1399 c 0,5,6
 526 1399 526 1399 549.5 1374.5 c 128,-1,7
 573 1350 573 1350 573 1307 c 0,8,9
 573 1262 573 1262 539 1133 c 2,10,-1
 332 350 l 1,0,-1
246 215 m 0,11,12
 295 215 295 215 330 180 c 128,-1,13
 365 145 365 145 365 98 c 0,14,15
 365 49 365 49 330 15.5 c 128,-1,16
 295 -18 295 -18 246 -18 c 0,17,18
 199 -18 199 -18 165 15.5 c 128,-1,19
 131 49 131 49 131 98 c 0,20,21
 131 145 131 145 165 180 c 128,-1,22
 199 215 199 215 246 215 c 0,11,12
EndSplineSet
EndChar

StartChar: quotedbl
Encoding: 34 34 5
Width: 677
GlyphClass: 2
Flags: W
LayerCount: 2
Fore
SplineSet
158 864 m 1,0,-1
 94 1321 l 2,1,2
 92 1331 92 1331 91 1341.5 c 128,-1,3
 90 1352 90 1352 90 1362 c 0,4,5
 90 1462 90 1462 174 1462 c 0,6,7
 215 1462 215 1462 237.5 1436.5 c 128,-1,8
 260 1411 260 1411 260 1362 c 0,9,10
 260 1354 260 1354 259 1343.5 c 128,-1,11
 258 1333 258 1333 256 1321 c 2,12,-1
 190 864 l 1,13,-1
 158 864 l 1,0,-1
487 864 m 1,14,-1
 422 1321 l 2,15,16
 420 1331 420 1331 419 1340.5 c 128,-1,17
 418 1350 418 1350 418 1360 c 0,18,19
 418 1411 418 1411 440.5 1436.5 c 128,-1,20
 463 1462 463 1462 504 1462 c 0,21,22
 588 1462 588 1462 588 1362 c 0,23,24
 588 1354 588 1354 588 1343.5 c 128,-1,25
 588 1333 588 1333 586 1321 c 2,26,-1
 518 864 l 1,27,-1
 487 864 l 1,14,-1
EndSplineSet
EndChar

StartChar: numbersign
Encoding: 35 35 6
Width: 1525
GlyphClass: 2
Flags: W
LayerCount: 2
Fore
SplineSet
854 1417 m 1,0,-1
 692 963 l 1,1,-1
 1008 963 l 1,2,-1
 1171 1452 l 1,3,-1
 1268 1417 l 1,4,-1
 1108 963 l 1,5,-1
 1393 963 l 1,6,-1
 1393 866 l 1,7,-1
 1075 866 l 1,8,-1
 975 567 l 1,9,-1
 1309 567 l 1,10,-1
 1309 471 l 1,11,-1
 942 471 l 1,12,-1
 770 -47 l 1,13,-1
 674 -14 l 1,14,-1
 838 471 l 1,15,-1
 524 471 l 1,16,-1
 354 -47 l 1,17,-1
 258 -14 l 1,18,-1
 426 471 l 1,19,-1
 131 471 l 1,20,-1
 131 567 l 1,21,-1
 457 567 l 1,22,-1
 555 866 l 1,23,-1
 231 866 l 1,24,-1
 231 963 l 1,25,-1
 588 963 l 1,26,-1
 758 1454 l 1,27,-1
 854 1417 l 1,0,-1
561 567 m 1,28,-1
 866 567 l 1,29,-1
 971 866 l 1,30,-1
 662 866 l 1,31,-1
 561 567 l 1,28,-1
EndSplineSet
EndChar

StartChar: dollar
Encoding: 36 36 7
Width: 1138
GlyphClass: 2
Flags: W
LayerCount: 2
Fore
SplineSet
776 1522 m 1,0,-1
 750 1376 l 1,1,2
 887 1374 887 1374 1053 1315 c 1,3,-1
 989 1016 l 1,4,-1
 897 1016 l 1,5,-1
 907 1212 l 1,6,-1
 883 1247 l 1,7,8
 809 1280 809 1280 731 1284 c 1,9,-1
 633 768 l 1,10,11
 799 709 799 709 878.5 626 c 128,-1,12
 958 543 958 543 958 422 c 0,13,14
 958 254 958 254 834.5 140.5 c 128,-1,15
 711 27 711 27 485 0 c 1,16,-1
 444 -209 l 1,17,-1
 358 -209 l 1,18,-1
 399 0 l 1,19,20
 192 8 192 8 43 90 c 1,21,-1
 109 403 l 1,22,-1
 215 403 l 1,23,-1
 195 174 l 1,24,-1
 213 150 l 1,25,26
 322 97 322 97 418 94 c 1,27,-1
 520 627 l 1,28,29
 366 697 366 697 293.5 776.5 c 128,-1,30
 221 856 221 856 221 967 c 0,31,32
 221 1043 221 1043 253 1113.5 c 128,-1,33
 285 1184 285 1184 343 1238 c 128,-1,34
 401 1292 401 1292 482 1328 c 128,-1,35
 563 1364 563 1364 664 1370 c 1,36,-1
 692 1522 l 1,37,-1
 776 1522 l 1,0,-1
645 1282 m 1,38,39
 524 1259 524 1259 457.5 1187.5 c 128,-1,40
 391 1116 391 1116 391 1020 c 0,41,42
 391 946 391 946 430 895 c 128,-1,43
 469 844 469 844 553 809 c 1,44,-1
 645 1282 l 1,38,39
508 96 m 1,45,46
 641 121 641 121 709.5 193.5 c 128,-1,47
 778 266 778 266 778 371 c 0,48,49
 778 451 778 451 736 502 c 128,-1,50
 694 553 694 553 602 588 c 1,51,-1
 508 96 l 1,45,46
EndSplineSet
EndChar

StartChar: percent
Encoding: 37 37 8
Width: 1744
GlyphClass: 2
Flags: W
LayerCount: 2
Fore
SplineSet
506 1399 m 0,0,1
 619 1399 619 1399 683.5 1322 c 128,-1,2
 748 1245 748 1245 748 1110 c 0,3,4
 748 1006 748 1006 720 906.5 c 128,-1,5
 692 807 692 807 643 727 c 0,6,7
 528 541 528 541 342 541 c 0,8,9
 229 541 229 541 165.5 615.5 c 128,-1,10
 102 690 102 690 102 827 c 0,11,12
 102 931 102 931 130 1033 c 128,-1,13
 158 1135 158 1135 205 1212 c 0,14,15
 262 1304 262 1304 339 1351.5 c 128,-1,16
 416 1399 416 1399 506 1399 c 0,0,1
1503 1374 m 1,17,-1
 362 0 l 1,18,-1
 238 0 l 1,19,-1
 1378 1374 l 1,20,-1
 1503 1374 l 1,17,-1
489 1325 m 0,21,22
 389 1325 389 1325 322 1176 c 0,23,24
 285 1094 285 1094 263.5 993.5 c 128,-1,25
 242 893 242 893 242 795 c 0,26,27
 242 615 242 615 356 614 c 0,28,29
 456 614 456 614 522 762 c 0,30,31
 557 840 557 840 579.5 941 c 128,-1,32
 602 1042 602 1042 602 1143 c 0,33,34
 602 1325 602 1325 489 1325 c 0,21,22
1401 834 m 0,35,36
 1514 834 1514 834 1578 758 c 128,-1,37
 1642 682 1642 682 1642 547 c 0,38,39
 1642 443 1642 443 1614.5 343.5 c 128,-1,40
 1587 244 1587 244 1538 164 c 0,41,42
 1421 -24 1421 -24 1237 -25 c 0,43,44
 1124 -25 1124 -25 1060.5 51 c 128,-1,45
 997 127 997 127 997 264 c 0,46,47
 997 368 997 368 1025 468.5 c 128,-1,48
 1053 569 1053 569 1100 647 c 0,49,50
 1157 739 1157 739 1234 786.5 c 128,-1,51
 1311 834 1311 834 1401 834 c 0,35,36
1384 762 m 0,52,53
 1284 762 1284 762 1217 612 c 0,54,55
 1180 530 1180 530 1158.5 430 c 128,-1,56
 1137 330 1137 330 1137 231 c 0,57,58
 1137 49 1137 49 1251 49 c 0,59,60
 1349 49 1349 49 1417 199 c 0,61,62
 1452 277 1452 277 1474.5 378 c 128,-1,63
 1497 479 1497 479 1497 580 c 0,64,65
 1497 762 1497 762 1384 762 c 0,52,53
EndSplineSet
EndChar

StartChar: ampersand
Encoding: 38 38 9
Width: 1441
GlyphClass: 2
Flags: W
LayerCount: 2
Fore
SplineSet
1362 651 m 1,0,-1
 1217 633 l 1,1,2
 1086 385 1086 385 958 262 c 1,3,4
 1021 168 1021 168 1095 126 c 128,-1,5
 1169 84 1169 84 1270 84 c 2,6,-1
 1292 84 l 1,7,-1
 1292 2 l 1,8,-1
 1147 -6 l 2,9,10
 1129 -8 1129 -8 1116.5 -8 c 128,-1,11
 1104 -8 1104 -8 1096 -8 c 0,12,13
 1057 -8 1057 -8 1025 1 c 128,-1,14
 993 10 993 10 964.5 29.5 c 128,-1,15
 936 49 936 49 906.5 80 c 128,-1,16
 877 111 877 111 842 152 c 1,17,18
 738 64 738 64 623 20.5 c 128,-1,19
 508 -23 508 -23 391 -23 c 0,20,21
 313 -23 313 -23 248.5 2 c 128,-1,22
 184 27 184 27 138 72 c 128,-1,23
 92 117 92 117 66.5 178.5 c 128,-1,24
 41 240 41 240 41 311 c 0,25,26
 41 571 41 571 393 750 c 1,27,28
 338 828 338 828 309.5 894.5 c 128,-1,29
 281 961 281 961 281 1022 c 0,30,31
 281 1098 281 1098 312.5 1167.5 c 128,-1,32
 344 1237 344 1237 402.5 1288 c 128,-1,33
 461 1339 461 1339 542 1370 c 128,-1,34
 623 1401 623 1401 721 1401 c 0,35,36
 860 1401 860 1401 940 1326 c 128,-1,37
 1020 1251 1020 1251 1020 1133 c 0,38,39
 1020 1004 1020 1004 914.5 902.5 c 128,-1,40
 809 801 809 801 602 737 c 1,41,-1
 907 332 l 1,42,43
 948 369 948 369 992 435.5 c 128,-1,44
 1036 502 1036 502 1085 598 c 1,45,-1
 1061 631 l 1,46,-1
 961 651 l 1,47,-1
 961 737 l 1,48,-1
 1362 737 l 1,49,-1
 1362 651 l 1,0,-1
440 686 m 1,50,51
 329 618 329 618 277 544.5 c 128,-1,52
 225 471 225 471 225 373 c 0,53,54
 225 314 225 314 245.5 263.5 c 128,-1,55
 266 213 266 213 301 176 c 128,-1,56
 336 139 336 139 385 118.5 c 128,-1,57
 434 98 434 98 494 98 c 0,58,59
 648 98 648 98 793 215 c 1,60,-1
 440 686 l 1,50,51
555 793 m 1,61,62
 852 899 852 899 852 1118 c 0,63,64
 852 1206 852 1206 804 1257.5 c 128,-1,65
 756 1309 756 1309 678 1309 c 0,66,67
 625 1309 625 1309 581 1290.5 c 128,-1,68
 537 1272 537 1272 504 1240 c 128,-1,69
 471 1208 471 1208 452.5 1165 c 128,-1,70
 434 1122 434 1122 434 1073 c 0,71,72
 434 1007 434 1007 465 939 c 128,-1,73
 496 871 496 871 555 793 c 1,61,62
EndSplineSet
EndChar

StartChar: quotesingle
Encoding: 39 39 10
Width: 348
GlyphClass: 2
Flags: W
LayerCount: 2
Fore
SplineSet
158 864 m 1,0,-1
 92 1321 l 2,1,2
 90 1331 90 1331 90 1340.5 c 128,-1,3
 90 1350 90 1350 90 1360 c 0,4,5
 90 1462 90 1462 174 1462 c 0,6,7
 215 1462 215 1462 237.5 1436.5 c 128,-1,8
 260 1411 260 1411 260 1362 c 0,9,10
 260 1354 260 1354 259 1343.5 c 128,-1,11
 258 1333 258 1333 256 1321 c 2,12,-1
 190 864 l 1,13,-1
 158 864 l 1,0,-1
EndSplineSet
EndChar

StartChar: parenleft
Encoding: 40 40 11
Width: 858
GlyphClass: 2
Flags: W
LayerCount: 2
Fore
SplineSet
924 1384 m 1,0,1
 842 1372 842 1372 768 1331 c 128,-1,2
 694 1290 694 1290 635 1225 c 0,3,4
 567 1149 567 1149 520 1062 c 128,-1,5
 473 975 473 975 442 870 c 0,6,7
 383 669 383 669 356.5 513.5 c 128,-1,8
 330 358 330 358 330 248 c 0,9,10
 330 45 330 45 403.5 -68.5 c 128,-1,11
 477 -182 477 -182 618 -205 c 1,12,-1
 602 -291 l 1,13,14
 504 -283 504 -283 423 -239 c 128,-1,15
 342 -195 342 -195 283.5 -120 c 128,-1,16
 225 -45 225 -45 193.5 56.5 c 128,-1,17
 162 158 162 158 162 281 c 0,18,19
 162 414 162 414 191.5 567.5 c 128,-1,20
 221 721 221 721 283 895 c 0,21,22
 365 1120 365 1120 547 1288 c 0,23,24
 635 1370 635 1370 735.5 1416 c 128,-1,25
 836 1462 836 1462 940 1470 c 1,26,-1
 924 1384 l 1,0,1
EndSplineSet
EndChar

StartChar: parenright
Encoding: 41 41 12
Width: 858
GlyphClass: 2
Flags: W
LayerCount: 2
Fore
SplineSet
203 1470 m 1,0,1
 301 1462 301 1462 381 1418 c 128,-1,2
 461 1374 461 1374 519.5 1300.5 c 128,-1,3
 578 1227 578 1227 609.5 1127.5 c 128,-1,4
 641 1028 641 1028 641 911 c 0,5,6
 641 583 641 583 539.5 320 c 128,-1,7
 438 57 438 57 258 -109 c 0,8,9
 166 -193 166 -193 66.5 -239 c 128,-1,10
 -33 -285 -33 -285 -135 -291 c 1,11,-1
 -119 -205 l 1,12,13
 -37 -195 -37 -195 37 -153 c 128,-1,14
 111 -111 111 -111 170 -45 c 0,15,16
 242 35 242 35 292 133 c 128,-1,17
 342 231 342 231 375 350 c 0,18,19
 428 549 428 549 450.5 697.5 c 128,-1,20
 473 846 473 846 473 944 c 0,21,22
 473 1139 473 1139 398.5 1251.5 c 128,-1,23
 324 1364 324 1364 186 1384 c 1,24,-1
 203 1470 l 1,25,-1
 203 1470 l 1,0,1
EndSplineSet
EndChar

StartChar: asterisk
Encoding: 42 42 13
Width: 1024
GlyphClass: 2
Flags: W
LayerCount: 2
Fore
SplineSet
719 1346 m 1,0,-1
 604 1090 l 1,1,-1
 575 1090 l 1,2,-1
 557 1346 l 1,3,-1
 662 1470 l 1,4,-1
 719 1346 l 1,0,-1
1008 1169 m 1,5,-1
 893 1055 l 1,6,-1
 627 1038 l 1,7,-1
 623 1065 l 1,8,-1
 872 1206 l 1,9,-1
 1008 1169 l 1,5,-1
776 840 m 1,10,-1
 756 692 l 1,11,-1
 629 745 l 1,12,-1
 580 991 l 1,13,-1
 604 1006 l 1,14,-1
 776 840 l 1,10,-1
559 991 m 1,15,-1
 416 743 l 1,16,-1
 268 692 l 1,17,-1
 303 840 l 1,18,-1
 541 1006 l 1,19,-1
 559 991 l 1,15,-1
547 1063 m 1,20,-1
 535 1038 l 1,21,-1
 272 1055 l 1,22,-1
 203 1169 l 1,23,-1
 352 1206 l 1,24,-1
 547 1063 l 1,20,-1
EndSplineSet
EndChar

StartChar: plus
Encoding: 43 43 14
Width: 1705
GlyphClass: 2
Flags: W
LayerCount: 2
Fore
SplineSet
913 1221 m 1,0,-1
 913 670 l 1,1,-1
 1452 670 l 1,2,-1
 1452 553 l 1,3,-1
 913 553 l 1,4,-1
 913 0 l 1,5,-1
 795 0 l 1,6,-1
 795 553 l 1,7,-1
 254 553 l 1,8,-1
 254 670 l 1,9,-1
 795 670 l 1,10,-1
 795 1221 l 1,11,-1
 913 1221 l 1,0,-1
EndSplineSet
EndChar

StartChar: comma
Encoding: 44 44 15
Width: 569
GlyphClass: 2
Flags: W
LayerCount: 2
Fore
SplineSet
-104 -279 m 1,0,1
 142 -232 142 -232 176 14 c 1,2,-1
 45 14 l 1,3,4
 27 41 27 41 27 74 c 0,5,6
 27 137 27 137 69 177 c 128,-1,7
 111 217 111 217 172 217 c 0,8,9
 235 217 235 217 269 180 c 128,-1,10
 303 143 303 143 303 78 c 0,11,12
 303 6 303 6 272.5 -64.5 c 128,-1,13
 242 -135 242 -135 186.5 -193.5 c 128,-1,14
 131 -252 131 -252 54 -293 c 128,-1,15
 -23 -334 -23 -334 -117 -346 c 1,16,-1
 -104 -279 l 1,0,1
EndSplineSet
EndChar

StartChar: hyphen
Encoding: 45 45 16
Width: 653
GlyphClass: 2
Flags: W
LayerCount: 2
Fore
SplineSet
532 561 m 1,0,-1
 506 424 l 1,1,-1
 47 424 l 1,2,-1
 74 561 l 1,3,-1
 532 561 l 1,0,-1
EndSplineSet
EndChar

StartChar: period
Encoding: 46 46 17
Width: 569
GlyphClass: 2
Flags: W
LayerCount: 2
Fore
SplineSet
174 233 m 256,0,1
 225 233 225 233 261 197.5 c 128,-1,2
 297 162 297 162 297 111 c 256,3,4
 297 60 297 60 261 25 c 128,-1,5
 225 -10 225 -10 174 -10 c 0,6,7
 125 -10 125 -10 89 24.5 c 128,-1,8
 53 59 53 59 53 111 c 256,9,10
 53 162 53 162 88 197.5 c 128,-1,11
 123 233 123 233 174 233 c 256,0,1
EndSplineSet
EndChar

StartChar: slash
Encoding: 47 47 18
Width: 985
GlyphClass: 2
Flags: W
LayerCount: 2
Fore
SplineSet
1075 1374 m 1,0,-1
 -102 -190 l 1,1,-1
 -227 -190 l 1,2,-1
 950 1374 l 1,3,-1
 1075 1374 l 1,0,-1
EndSplineSet
EndChar

StartChar: zero
Encoding: 48 48 19
Width: 1138
GlyphClass: 2
Flags: W
LayerCount: 2
Fore
SplineSet
705 1399 m 0,0,1
 879 1399 879 1399 980 1278 c 128,-1,2
 1081 1157 1081 1157 1081 938 c 0,3,4
 1081 758 1081 758 1035 590 c 128,-1,5
 989 422 989 422 909 287 c 0,6,7
 817 133 817 133 696 54 c 128,-1,8
 575 -25 575 -25 432 -25 c 0,9,10
 258 -25 258 -25 156.5 97 c 128,-1,11
 55 219 55 219 55 436 c 0,12,13
 55 614 55 614 101 784 c 128,-1,14
 147 954 147 954 227 1090 c 0,15,16
 319 1244 319 1244 440.5 1321.5 c 128,-1,17
 562 1399 562 1399 705 1399 c 0,0,1
686 1303 m 0,18,19
 592 1303 592 1303 518 1238.5 c 128,-1,20
 444 1174 444 1174 383 1044 c 0,21,22
 354 983 354 983 326.5 894 c 128,-1,23
 299 805 299 805 276 688 c 0,24,25
 243 524 243 524 244 401 c 0,26,27
 244 73 244 73 455 74 c 0,28,29
 631 74 631 74 754 330 c 0,30,31
 813 457 813 457 860 688 c 0,32,33
 876 774 876 774 884.5 844.5 c 128,-1,34
 893 915 893 915 893 975 c 0,35,36
 893 1303 893 1303 686 1303 c 0,18,19
EndSplineSet
EndChar

StartChar: one
Encoding: 49 49 20
Width: 1138
GlyphClass: 2
Flags: W
LayerCount: 2
Fore
SplineSet
827 1399 m 1,0,-1
 584 127 l 1,1,-1
 602 96 l 1,2,-1
 780 86 l 1,3,-1
 780 0 l 1,4,-1
 168 0 l 1,5,-1
 168 88 l 1,6,-1
 381 100 l 1,7,-1
 414 135 l 1,8,-1
 618 1198 l 1,9,-1
 598 1219 l 1,10,-1
 301 1180 l 1,11,-1
 301 1264 l 1,12,-1
 778 1399 l 1,13,-1
 827 1399 l 1,0,-1
EndSplineSet
EndChar

StartChar: two
Encoding: 50 50 21
Width: 1138
GlyphClass: 2
Flags: W
LayerCount: 2
Fore
SplineSet
805 162 m 1,0,-1
 874 336 l 1,1,-1
 967 336 l 1,2,-1
 903 0 l 1,3,-1
 -45 0 l 1,4,-1
 -20 129 l 1,5,6
 191 276 191 276 354.5 399 c 128,-1,7
 518 522 518 522 630.5 632.5 c 128,-1,8
 743 743 743 743 800.5 848.5 c 128,-1,9
 858 954 858 954 858 1071 c 0,10,11
 858 1177 858 1177 800.5 1235.5 c 128,-1,12
 743 1294 743 1294 635 1294 c 0,13,14
 543 1294 543 1294 442 1245 c 1,15,-1
 401 1026 l 1,16,17
 352 995 352 995 303 995 c 0,18,19
 258 995 258 995 232.5 1018.5 c 128,-1,20
 207 1042 207 1042 207 1077 c 0,21,22
 207 1118 207 1118 228.5 1163 c 128,-1,23
 250 1208 250 1208 295 1249 c 0,24,25
 369 1317 369 1317 476.5 1358 c 128,-1,26
 584 1399 584 1399 700 1399 c 0,27,28
 874 1399 874 1399 966.5 1318 c 128,-1,29
 1059 1237 1059 1237 1059 1092 c 0,30,31
 1059 981 1059 981 1002.5 876.5 c 128,-1,32
 946 772 946 772 835.5 661.5 c 128,-1,33
 725 551 725 551 562 429 c 128,-1,34
 399 307 399 307 188 162 c 1,35,-1
 805 162 l 1,0,-1
EndSplineSet
EndChar

StartChar: three
Encoding: 51 51 22
Width: 1138
GlyphClass: 2
Flags: W
LayerCount: 2
Fore
SplineSet
653 731 m 1,0,1
 805 725 805 725 886 653.5 c 128,-1,2
 967 582 967 582 967 465 c 0,3,4
 967 361 967 361 909.5 261.5 c 128,-1,5
 852 162 852 162 748 90 c 0,6,7
 668 37 668 37 569.5 7 c 128,-1,8
 471 -23 471 -23 367 -23 c 0,9,10
 285 -23 285 -23 218.5 -5.5 c 128,-1,11
 152 12 152 12 103.5 42 c 128,-1,12
 55 72 55 72 28.5 112 c 128,-1,13
 2 152 2 152 2 199 c 0,14,15
 2 252 2 252 31.5 282.5 c 128,-1,16
 61 313 61 313 115 313 c 0,17,18
 150 313 150 313 186 299 c 1,19,-1
 217 123 l 1,20,21
 297 74 297 74 389 74 c 0,22,23
 471 74 471 74 541.5 102.5 c 128,-1,24
 612 131 612 131 663.5 180 c 128,-1,25
 715 229 715 229 743.5 295.5 c 128,-1,26
 772 362 772 362 772 440 c 0,27,28
 772 544 772 544 707.5 604 c 128,-1,29
 643 664 643 664 522 664 c 0,30,31
 493 664 493 664 463.5 661.5 c 128,-1,32
 434 659 434 659 399 655 c 1,33,-1
 416 770 l 1,34,35
 430 768 430 768 442.5 768 c 128,-1,36
 455 768 455 768 467 768 c 0,37,38
 555 768 555 768 625.5 792.5 c 128,-1,39
 696 817 696 817 746.5 860 c 128,-1,40
 797 903 797 903 823.5 960.5 c 128,-1,41
 850 1018 850 1018 850 1083 c 0,42,43
 850 1185 850 1185 788.5 1244 c 128,-1,44
 727 1303 727 1303 621 1303 c 0,45,46
 523 1303 523 1303 426 1237 c 1,47,-1
 397 1040 l 1,48,49
 366 1030 366 1030 342.5 1023 c 128,-1,50
 319 1016 319 1016 301 1016 c 0,51,52
 262 1016 262 1016 236.5 1042.5 c 128,-1,53
 211 1069 211 1069 211 1112 c 0,54,55
 211 1163 211 1163 248 1214.5 c 128,-1,56
 285 1266 285 1266 349.5 1307 c 128,-1,57
 414 1348 414 1348 503 1373.5 c 128,-1,58
 592 1399 592 1399 698 1399 c 0,59,60
 864 1399 864 1399 956.5 1323 c 128,-1,61
 1049 1247 1049 1247 1049 1118 c 0,62,63
 1049 987 1049 987 947.5 882.5 c 128,-1,64
 846 778 846 778 653 731 c 1,0,1
EndSplineSet
EndChar

StartChar: four
Encoding: 52 52 23
Width: 1138
GlyphClass: 2
Flags: W
LayerCount: 2
Fore
SplineSet
1008 1386 m 1,0,-1
 844 530 l 1,1,-1
 1073 530 l 1,2,-1
 1047 397 l 1,3,-1
 817 397 l 1,4,-1
 727 -76 l 1,5,-1
 569 -76 l 1,6,-1
 659 397 l 1,7,-1
 0 397 l 1,8,-1
 25 530 l 1,9,-1
 887 1386 l 1,10,-1
 1008 1386 l 1,0,-1
178 530 m 1,11,-1
 686 530 l 1,12,-1
 807 1163 l 1,13,-1
 178 530 l 1,11,-1
EndSplineSet
EndChar

StartChar: five
Encoding: 53 53 24
Width: 1138
GlyphClass: 2
Flags: W
LayerCount: 2
Fore
SplineSet
1063 1374 m 1,0,-1
 1034 1219 l 1,1,-1
 438 1219 l 1,2,-1
 354 801 l 1,3,4
 483 836 483 836 584 836 c 0,5,6
 764 836 764 836 860 747.5 c 128,-1,7
 956 659 956 659 956 506 c 0,8,9
 956 404 956 404 906 302.5 c 128,-1,10
 856 201 856 201 762 123 c 0,11,12
 582 -27 582 -27 332 -27 c 0,13,14
 172 -27 172 -27 89 26.5 c 128,-1,15
 6 80 6 80 6 162 c 0,16,17
 6 213 6 213 40 247 c 128,-1,18
 74 281 74 281 125 281 c 0,19,20
 148 281 148 281 176 274 c 1,21,-1
 229 100 l 1,22,23
 297 69 297 69 379 70 c 0,24,25
 459 70 459 70 530.5 100.5 c 128,-1,26
 602 131 602 131 656.5 184.5 c 128,-1,27
 711 238 711 238 741.5 308.5 c 128,-1,28
 772 379 772 379 772 457 c 0,29,30
 772 721 772 721 408 721 c 0,31,32
 379 721 379 721 211 709 c 1,33,-1
 346 1374 l 1,34,-1
 1063 1374 l 1,0,-1
EndSplineSet
EndChar

StartChar: six
Encoding: 54 54 25
Width: 1138
GlyphClass: 2
Flags: W
LayerCount: 2
Fore
SplineSet
1004 1362 m 1,0,1
 742 1335 742 1335 560.5 1185.5 c 128,-1,2
 379 1036 379 1036 315 793 c 1,3,4
 405 859 405 859 493.5 890.5 c 128,-1,5
 582 922 582 922 668 922 c 0,6,7
 830 922 830 922 928 822.5 c 128,-1,8
 1026 723 1026 723 1026 549 c 0,9,10
 1026 432 1026 432 983 328.5 c 128,-1,11
 940 225 940 225 865.5 146.5 c 128,-1,12
 791 68 791 68 689.5 21.5 c 128,-1,13
 588 -25 588 -25 469 -25 c 0,14,15
 287 -25 287 -25 176.5 98 c 128,-1,16
 66 221 66 221 66 444 c 0,17,18
 66 665 66 665 155 865 c 128,-1,19
 244 1065 244 1065 416 1219 c 0,20,21
 639 1420 639 1420 999 1466 c 1,22,-1
 1004 1362 l 1,0,1
289 688 m 1,23,24
 250 569 250 569 250 426 c 0,25,26
 250 254 250 254 313.5 162 c 128,-1,27
 377 70 377 70 489 70 c 0,28,29
 561 70 561 70 624.5 102.5 c 128,-1,30
 688 135 688 135 736 192.5 c 128,-1,31
 784 250 784 250 813 330 c 128,-1,32
 842 410 842 410 842 506 c 0,33,34
 842 799 842 799 580 799 c 0,35,36
 422 799 422 799 289 688 c 1,23,24
EndSplineSet
EndChar

StartChar: seven
Encoding: 55 55 26
Width: 1138
GlyphClass: 2
Flags: W
LayerCount: 2
Fore
SplineSet
1221 1374 m 1,0,-1
 1204 1292 l 1,1,-1
 270 -31 l 1,2,-1
 262 -76 l 1,3,-1
 92 -76 l 1,4,-1
 1008 1219 l 1,5,-1
 375 1219 l 1,6,-1
 307 1032 l 1,7,-1
 211 1032 l 1,8,-1
 276 1374 l 1,9,-1
 1221 1374 l 1,0,-1
EndSplineSet
EndChar

StartChar: eight
Encoding: 56 56 27
Width: 1138
GlyphClass: 2
Flags: W
LayerCount: 2
Fore
SplineSet
666 756 m 1,0,1
 777 807 777 807 837 898 c 128,-1,2
 897 989 897 989 897 1096 c 0,3,4
 897 1196 897 1196 839.5 1253.5 c 128,-1,5
 782 1311 782 1311 678 1311 c 0,6,7
 619 1311 619 1311 566.5 1289.5 c 128,-1,8
 514 1268 514 1268 474 1229 c 128,-1,9
 434 1190 434 1190 410.5 1137.5 c 128,-1,10
 387 1085 387 1085 387 1022 c 0,11,12
 387 936 387 936 456 875.5 c 128,-1,13
 525 815 525 815 666 756 c 1,0,1
748 723 m 1,14,15
 816 690 816 690 863.5 658.5 c 128,-1,16
 911 627 911 627 944 591 c 128,-1,17
 977 555 977 555 992.5 513 c 128,-1,18
 1008 471 1008 471 1008 420 c 0,19,20
 1008 328 1008 328 967 246 c 128,-1,21
 926 164 926 164 853 101.5 c 128,-1,22
 780 39 780 39 679 2 c 128,-1,23
 578 -35 578 -35 457 -35 c 0,24,25
 254 -35 254 -35 145.5 55 c 128,-1,26
 37 145 37 145 37 289 c 0,27,28
 37 418 37 418 124 528.5 c 128,-1,29
 211 639 211 639 385 717 c 1,30,31
 297 762 297 762 256 823.5 c 128,-1,32
 215 885 215 885 215 977 c 0,33,34
 215 1065 215 1065 252 1143 c 128,-1,35
 289 1221 289 1221 355.5 1278 c 128,-1,36
 422 1335 422 1335 512 1368 c 128,-1,37
 602 1401 602 1401 709 1401 c 0,38,39
 873 1401 873 1401 966 1321 c 128,-1,40
 1059 1241 1059 1241 1059 1108 c 0,41,42
 1059 981 1059 981 980.5 881.5 c 128,-1,43
 902 782 902 782 748 723 c 1,14,15
455 672 m 1,44,45
 330 600 330 600 269.5 519 c 128,-1,46
 209 438 209 438 209 326 c 0,47,48
 209 207 209 207 285.5 136.5 c 128,-1,49
 362 66 362 66 492 66 c 0,50,51
 564 66 564 66 625 89.5 c 128,-1,52
 686 113 686 113 730 155 c 128,-1,53
 774 197 774 197 798.5 252 c 128,-1,54
 823 307 823 307 823 369 c 0,55,56
 823 424 823 424 800.5 462 c 128,-1,57
 778 500 778 500 732 532.5 c 128,-1,58
 686 565 686 565 616.5 597 c 128,-1,59
 547 629 547 629 455 672 c 1,44,45
EndSplineSet
EndChar

StartChar: nine
Encoding: 57 57 28
Width: 1138
GlyphClass: 2
Flags: W
LayerCount: 2
Fore
SplineSet
846 705 m 1,0,1
 864 783 864 783 874.5 851.5 c 128,-1,2
 885 920 885 920 885 981 c 0,3,4
 885 1143 885 1143 818.5 1226 c 128,-1,5
 752 1309 752 1309 631 1309 c 0,6,7
 563 1309 563 1309 499.5 1275 c 128,-1,8
 436 1241 436 1241 388 1181.5 c 128,-1,9
 340 1122 340 1122 311.5 1042.5 c 128,-1,10
 283 963 283 963 283 870 c 0,11,12
 283 733 283 733 353.5 654 c 128,-1,13
 424 575 424 575 545 575 c 0,14,15
 701 576 701 576 846 705 c 1,0,1
57 -29 m 1,16,17
 319 67 319 67 501.5 212.5 c 128,-1,18
 684 358 684 358 801 573 c 1,19,20
 598 460 598 460 451 461 c 0,21,22
 373 461 373 461 307.5 487.5 c 128,-1,23
 242 514 242 514 194.5 562 c 128,-1,24
 147 610 147 610 120.5 677.5 c 128,-1,25
 94 745 94 745 94 829 c 0,26,27
 94 952 94 952 147.5 1068 c 128,-1,28
 201 1184 201 1184 299 1266 c 0,29,30
 461 1399 461 1399 664 1399 c 0,31,32
 861 1399 861 1399 965 1290.5 c 128,-1,33
 1069 1182 1069 1182 1069 977 c 0,34,35
 1069 801 1069 801 1005.5 637 c 128,-1,36
 942 473 942 473 818 331.5 c 128,-1,37
 694 190 694 190 512 76.5 c 128,-1,38
 330 -37 330 -37 94 -115 c 1,39,-1
 57 -29 l 1,16,17
EndSplineSet
EndChar

StartChar: colon
Encoding: 58 58 29
Width: 653
GlyphClass: 2
Flags: W
LayerCount: 2
Fore
SplineSet
358 977 m 256,0,1
 409 977 409 977 444 942 c 128,-1,2
 479 907 479 907 479 856 c 256,3,4
 479 805 479 805 444.5 769 c 128,-1,5
 410 733 410 733 358 733 c 0,6,7
 309 733 309 733 273.5 769 c 128,-1,8
 238 805 238 805 238 856 c 256,9,10
 238 907 238 907 272.5 942 c 128,-1,11
 307 977 307 977 358 977 c 256,0,1
217 233 m 256,12,13
 268 233 268 233 304 197.5 c 128,-1,14
 340 162 340 162 340 111 c 256,15,16
 340 60 340 60 304 25 c 128,-1,17
 268 -10 268 -10 217 -10 c 0,18,19
 168 -10 168 -10 132 24.5 c 128,-1,20
 96 59 96 59 96 111 c 256,21,22
 96 162 96 162 131 197.5 c 128,-1,23
 166 233 166 233 217 233 c 256,12,13
EndSplineSet
EndChar

StartChar: semicolon
Encoding: 59 59 30
Width: 653
GlyphClass: 2
Flags: W
LayerCount: 2
Fore
SplineSet
358 977 m 256,0,1
 409 977 409 977 444 942 c 128,-1,2
 479 907 479 907 479 856 c 256,3,4
 479 805 479 805 444.5 769 c 128,-1,5
 410 733 410 733 358 733 c 0,6,7
 309 733 309 733 273.5 769 c 128,-1,8
 238 805 238 805 238 856 c 256,9,10
 238 907 238 907 272.5 942 c 128,-1,11
 307 977 307 977 358 977 c 256,0,1
-53 -279 m 1,12,13
 193 -232 193 -232 227 14 c 1,14,-1
 96 14 l 1,15,16
 78 41 78 41 78 74 c 0,17,18
 78 137 78 137 120 177 c 128,-1,19
 162 217 162 217 223 217 c 0,20,21
 286 217 286 217 320 180 c 128,-1,22
 354 143 354 143 354 78 c 0,23,24
 354 6 354 6 323.5 -64.5 c 128,-1,25
 293 -135 293 -135 237.5 -193.5 c 128,-1,26
 182 -252 182 -252 105.5 -293 c 128,-1,27
 29 -334 29 -334 -66 -346 c 1,28,-1
 -53 -279 l 1,12,13
EndSplineSet
EndChar

StartChar: less
Encoding: 60 60 31
Width: 1705
GlyphClass: 2
Flags: W
LayerCount: 2
Fore
SplineSet
1442 1018 m 1,0,-1
 442 610 l 1,1,-1
 1442 205 l 1,2,-1
 1442 76 l 1,3,-1
 264 559 l 1,4,-1
 264 662 l 1,5,-1
 1442 1145 l 1,6,-1
 1442 1018 l 1,0,-1
EndSplineSet
EndChar

StartChar: equal
Encoding: 61 61 32
Width: 1705
GlyphClass: 2
Flags: W
LayerCount: 2
Fore
SplineSet
1452 860 m 1,0,-1
 1452 743 l 1,1,-1
 254 743 l 1,2,-1
 254 860 l 1,3,-1
 1452 860 l 1,0,-1
1452 477 m 1,4,-1
 1452 360 l 1,5,-1
 254 360 l 1,6,-1
 254 477 l 1,7,-1
 1452 477 l 1,4,-1
EndSplineSet
EndChar

StartChar: greater
Encoding: 62 62 33
Width: 1705
GlyphClass: 2
Flags: W
LayerCount: 2
Fore
SplineSet
1442 662 m 1,0,-1
 1442 559 l 1,1,-1
 264 76 l 1,2,-1
 264 205 l 1,3,-1
 1264 610 l 1,4,-1
 264 1018 l 1,5,-1
 264 1145 l 1,6,-1
 1442 662 l 1,0,-1
EndSplineSet
EndChar

StartChar: question
Encoding: 63 63 34
Width: 995
GlyphClass: 2
Flags: W
LayerCount: 2
Fore
SplineSet
399 350 m 1,0,-1
 293 350 l 1,1,-1
 350 649 l 1,2,3
 534 715 534 715 628.5 828.5 c 128,-1,4
 723 942 723 942 723 1090 c 0,5,6
 723 1305 723 1305 481 1305 c 2,7,-1
 475 1305 l 1,8,-1
 352 1102 l 2,9,10
 342 1100 342 1100 334 1100 c 128,-1,11
 326 1100 326 1100 315 1100 c 0,12,13
 264 1100 264 1100 237.5 1121.5 c 128,-1,14
 211 1143 211 1143 211 1180 c 0,15,16
 211 1223 211 1223 235.5 1263 c 128,-1,17
 260 1303 260 1303 305 1333.5 c 128,-1,18
 350 1364 350 1364 412.5 1381.5 c 128,-1,19
 475 1399 475 1399 551 1399 c 0,20,21
 725 1399 725 1399 818 1320 c 128,-1,22
 911 1241 911 1241 911 1106 c 0,23,24
 911 772 911 772 446 590 c 1,25,-1
 399 350 l 1,0,-1
309 215 m 0,26,27
 358 215 358 215 392 180 c 128,-1,28
 426 145 426 145 426 98 c 0,29,30
 426 49 426 49 392 15.5 c 128,-1,31
 358 -18 358 -18 309 -18 c 0,32,33
 262 -18 262 -18 227.5 15.5 c 128,-1,34
 193 49 193 49 193 98 c 0,35,36
 193 145 193 145 227.5 180 c 128,-1,37
 262 215 262 215 309 215 c 0,26,27
EndSplineSet
EndChar

StartChar: at
Encoding: 64 64 35
Width: 1929
GlyphClass: 2
Flags: W
LayerCount: 2
Fore
SplineSet
1133 922 m 2,0,1
 1123 924 1123 924 1110.5 925 c 128,-1,2
 1098 926 1098 926 1087 926 c 0,3,4
 1015 926 1015 926 954 892 c 128,-1,5
 893 858 893 858 847 797.5 c 128,-1,6
 801 737 801 737 774.5 653 c 128,-1,7
 748 569 748 569 748 469 c 0,8,9
 748 356 748 356 792 299 c 128,-1,10
 836 242 836 242 918 242 c 0,11,12
 1024 242 1024 242 1133 377 c 1,13,-1
 1217 807 l 1,14,-1
 1133 922 l 2,0,1
1128 289 m 1,15,16
 1044 203 1044 203 971.5 159 c 128,-1,17
 899 115 899 115 827 115 c 0,18,19
 716 115 716 115 644.5 204 c 128,-1,20
 573 293 573 293 573 444 c 0,21,22
 573 542 573 542 603 630.5 c 128,-1,23
 633 719 633 719 688 795 c 0,24,25
 764 897 764 897 868.5 952.5 c 128,-1,26
 973 1008 973 1008 1083 1008 c 0,27,28
 1179 1008 1179 1008 1284 952 c 1,29,-1
 1321 999 l 1,30,-1
 1432 999 l 1,31,32
 1412 948 1412 948 1400.5 894 c 128,-1,33
 1389 840 1389 840 1376 780 c 2,34,-1
 1296 428 l 2,35,36
 1286 387 1286 387 1283 359.5 c 128,-1,37
 1280 332 1280 332 1280 315 c 0,38,39
 1280 274 1280 274 1303.5 250.5 c 128,-1,40
 1327 227 1327 227 1366 227 c 0,41,42
 1407 227 1407 227 1454 254 c 128,-1,43
 1501 281 1501 281 1546 334 c 0,44,45
 1614 414 1614 414 1652 528.5 c 128,-1,46
 1690 643 1690 643 1690 772 c 0,47,48
 1690 891 1690 891 1648 993.5 c 128,-1,49
 1606 1096 1606 1096 1530 1170.5 c 128,-1,50
 1454 1245 1454 1245 1346.5 1287 c 128,-1,51
 1239 1329 1239 1329 1110 1329 c 0,52,53
 776 1329 776 1329 555 1124 c 0,54,55
 301 888 301 888 301 528 c 0,56,57
 301 360 301 360 353.5 223 c 128,-1,58
 406 86 406 86 502 -10 c 128,-1,59
 598 -106 598 -106 733 -159.5 c 128,-1,60
 868 -213 868 -213 1032 -213 c 0,61,62
 1169 -213 1169 -213 1305.5 -176 c 128,-1,63
 1442 -139 1442 -139 1571 -63 c 1,64,-1
 1599 -133 l 1,65,66
 1435 -225 1435 -225 1278.5 -269 c 128,-1,67
 1122 -313 1122 -313 977 -313 c 0,68,69
 803 -313 803 -313 653.5 -255 c 128,-1,70
 504 -197 504 -197 385 -82 c 0,71,72
 156 137 156 137 156 504 c 0,73,74
 156 912 156 912 453 1184 c 0,75,76
 576 1295 576 1295 739.5 1356 c 128,-1,77
 903 1417 903 1417 1081 1417 c 0,78,79
 1243 1417 1243 1417 1374 1370 c 128,-1,80
 1505 1323 1505 1323 1595.5 1237 c 128,-1,81
 1686 1151 1686 1151 1735 1031 c 128,-1,82
 1784 911 1784 911 1784 764 c 0,83,84
 1784 537 1784 537 1669 360 c 0,85,86
 1591 241 1591 241 1484.5 178 c 128,-1,87
 1378 115 1378 115 1280 115 c 0,88,89
 1128 115 1128 115 1128 270 c 2,90,-1
 1128 289 l 1,15,16
EndSplineSet
EndChar

StartChar: A
Encoding: 65 65 36
Width: 1241
GlyphClass: 2
Flags: W
LayerCount: 2
Fore
SplineSet
842 1386 m 1,0,-1
 1061 125 l 1,1,-1
 1096 88 l 1,2,-1
 1196 78 l 1,3,-1
 1196 0 l 1,4,-1
 748 0 l 1,5,-1
 748 78 l 1,6,-1
 868 88 l 1,7,-1
 883 117 l 1,8,-1
 819 508 l 1,9,-1
 322 508 l 1,10,-1
 102 117 l 1,11,-1
 119 88 l 1,12,-1
 244 78 l 1,13,-1
 244 0 l 1,14,-1
 -162 0 l 1,15,-1
 -162 78 l 1,16,-1
 -49 90 l 1,17,-1
 707 1386 l 1,18,-1
 842 1386 l 1,0,-1
373 596 m 1,19,-1
 801 596 l 1,20,-1
 707 1186 l 1,21,-1
 373 596 l 1,19,-1
EndSplineSet
EndChar

StartChar: B
Encoding: 66 66 37
Width: 1204
GlyphClass: 2
Flags: W
LayerCount: 2
Fore
SplineSet
698 1374 m 2,0,1
 907 1374 907 1374 1009.5 1313.5 c 128,-1,2
 1112 1253 1112 1253 1112 1118 c 0,3,4
 1112 971 1112 971 1021 872.5 c 128,-1,5
 930 774 930 774 750 729 c 1,6,7
 1074 713 1074 713 1073 457 c 0,8,9
 1073 0 1073 0 455 0 c 2,10,-1
 -57 0 l 1,11,-1
 -57 78 l 1,12,-1
 72 90 l 1,13,-1
 106 119 l 1,14,-1
 324 1255 l 1,15,-1
 303 1286 l 1,16,-1
 172 1296 l 1,17,-1
 172 1374 l 1,18,-1
 698 1374 l 2,0,1
408 756 m 1,19,20
 476 750 476 750 512 750 c 0,21,22
 700 750 700 750 804.5 845 c 128,-1,23
 909 940 909 940 909 1098 c 0,24,25
 909 1200 909 1200 837.5 1247 c 128,-1,26
 766 1294 766 1294 618 1294 c 0,27,28
 579 1294 579 1294 506 1288 c 1,29,-1
 408 756 l 1,19,20
281 90 m 1,30,31
 351 84 351 84 416 84 c 0,32,33
 873 84 873 84 872 442 c 0,34,35
 872 563 872 563 793.5 616.5 c 128,-1,36
 715 670 715 670 549 670 c 0,37,38
 520 670 520 670 481 667 c 128,-1,39
 442 664 442 664 391 659 c 1,40,-1
 281 90 l 1,30,31
EndSplineSet
EndChar

StartChar: C
Encoding: 67 67 38
Width: 1236
GlyphClass: 2
Flags: W
LayerCount: 2
Fore
SplineSet
1217 1014 m 1,0,-1
 1130 1014 l 1,1,-1
 1130 1210 l 1,2,-1
 1114 1249 l 1,3,4
 1014 1302 1014 1302 897 1303 c 0,5,6
 795 1303 795 1303 702.5 1267 c 128,-1,7
 610 1231 610 1231 535 1163 c 0,8,9
 414 1054 414 1054 346.5 887.5 c 128,-1,10
 279 721 279 721 279 518 c 0,11,12
 279 305 279 305 389.5 188.5 c 128,-1,13
 500 72 500 72 705 72 c 0,14,15
 789 72 789 72 881 100 c 1,16,-1
 920 135 l 1,17,-1
 1010 371 l 1,18,-1
 1098 371 l 1,19,-1
 1042 47 l 1,20,21
 827 -25 827 -25 635 -25 c 0,22,23
 508 -25 508 -25 406.5 15 c 128,-1,24
 305 55 305 55 233.5 129 c 128,-1,25
 162 203 162 203 123 308.5 c 128,-1,26
 84 414 84 414 84 543 c 0,27,28
 84 744 84 744 167 921 c 128,-1,29
 250 1098 250 1098 401 1223 c 0,30,31
 507 1309 507 1309 634.5 1354 c 128,-1,32
 762 1399 762 1399 903 1399 c 0,33,34
 1077 1399 1077 1399 1274 1329 c 1,35,-1
 1217 1014 l 1,0,-1
EndSplineSet
EndChar

StartChar: D
Encoding: 68 68 39
Width: 1374
GlyphClass: 2
Flags: W
LayerCount: 2
Fore
SplineSet
637 1374 m 2,0,1
 954 1374 954 1374 1115 1241 c 128,-1,2
 1276 1108 1276 1108 1276 852 c 0,3,4
 1276 672 1276 672 1210.5 510 c 128,-1,5
 1145 348 1145 348 1022 227 c 256,6,7
 899 106 899 106 742.5 53 c 128,-1,8
 586 0 586 0 375 0 c 2,9,-1
 -57 0 l 1,10,-1
 -57 78 l 1,11,-1
 74 90 l 1,12,-1
 106 119 l 1,13,-1
 326 1255 l 1,14,-1
 305 1286 l 1,15,-1
 172 1296 l 1,16,-1
 172 1374 l 1,17,-1
 637 1374 l 2,0,1
287 96 m 1,18,-1
 399 96 l 2,19,20
 567 96 567 96 694 151.5 c 128,-1,21
 821 207 821 207 901 311 c 0,22,23
 979 415 979 415 1028 564 c 128,-1,24
 1077 713 1077 713 1077 872 c 0,25,26
 1077 1081 1077 1081 964.5 1180.5 c 128,-1,27
 852 1280 852 1280 621 1280 c 2,28,-1
 510 1280 l 1,29,-1
 287 96 l 1,18,-1
EndSplineSet
EndChar

StartChar: E
Encoding: 69 69 40
Width: 1118
GlyphClass: 2
Flags: W
LayerCount: 2
Fore
SplineSet
1133 1374 m 1,0,-1
 1075 1075 l 1,1,-1
 977 1075 l 1,2,-1
 977 1249 l 1,3,-1
 954 1280 l 1,4,-1
 514 1280 l 1,5,-1
 414 762 l 1,6,-1
 725 762 l 1,7,-1
 762 791 l 1,8,-1
 807 940 l 1,9,-1
 895 940 l 1,10,-1
 809 489 l 1,11,-1
 725 489 l 1,12,-1
 733 637 l 1,13,-1
 709 666 l 1,14,-1
 395 666 l 1,15,-1
 285 94 l 1,16,-1
 807 94 l 1,17,-1
 844 127 l 1,18,-1
 913 334 l 1,19,-1
 1008 334 l 1,20,-1
 942 0 l 1,21,-1
 -49 0 l 1,22,-1
 -49 78 l 1,23,-1
 80 90 l 1,24,-1
 115 119 l 1,25,-1
 334 1255 l 1,26,-1
 311 1286 l 1,27,-1
 180 1296 l 1,28,-1
 180 1374 l 1,29,-1
 1133 1374 l 1,0,-1
EndSplineSet
EndChar

StartChar: F
Encoding: 70 70 41
Width: 1042
GlyphClass: 2
Flags: W
LayerCount: 2
Fore
SplineSet
1106 1374 m 1,0,-1
 1042 1053 l 1,1,-1
 944 1053 l 1,2,-1
 944 1247 l 1,3,-1
 924 1280 l 1,4,-1
 510 1280 l 1,5,-1
 408 739 l 1,6,-1
 696 739 l 1,7,-1
 733 770 l 1,8,-1
 780 918 l 1,9,-1
 870 918 l 1,10,-1
 782 467 l 1,11,-1
 694 467 l 1,12,-1
 702 614 l 1,13,-1
 678 645 l 1,14,-1
 389 645 l 1,15,-1
 289 123 l 1,16,-1
 317 92 l 1,17,-1
 461 82 l 1,18,-1
 461 0 l 1,19,-1
 -53 0 l 1,20,-1
 -53 78 l 1,21,-1
 76 88 l 1,22,-1
 109 117 l 1,23,-1
 328 1255 l 1,24,-1
 307 1284 l 1,25,-1
 176 1296 l 1,26,-1
 176 1374 l 1,27,-1
 1106 1374 l 1,0,-1
EndSplineSet
EndChar

StartChar: G
Encoding: 71 71 42
Width: 1359
GlyphClass: 2
Flags: W
LayerCount: 2
Fore
SplineSet
1249 1014 m 1,0,-1
 1141 1014 l 1,1,-1
 1147 1206 l 1,2,-1
 1128 1249 l 1,3,4
 1026 1300 1026 1300 922 1300 c 0,5,6
 820 1300 820 1300 724.5 1263.5 c 128,-1,7
 629 1227 629 1227 547 1157 c 0,8,9
 422 1051 422 1051 350.5 885 c 128,-1,10
 279 719 279 719 279 516 c 0,11,12
 279 418 279 418 308.5 336 c 128,-1,13
 338 254 338 254 392 196.5 c 128,-1,14
 446 139 446 139 522 107.5 c 128,-1,15
 598 76 598 76 688 76 c 0,16,17
 766 76 766 76 903 104 c 1,18,-1
 981 541 l 1,19,-1
 961 569 l 1,20,-1
 827 580 l 1,21,-1
 827 659 l 1,22,-1
 1331 659 l 1,23,-1
 1331 580 l 1,24,-1
 1200 569 l 1,25,-1
 1167 541 l 1,26,-1
 1071 47 l 1,27,28
 940 10 940 10 832.5 -7.5 c 128,-1,29
 725 -25 725 -25 639 -25 c 0,30,31
 512 -25 512 -25 408.5 16 c 128,-1,32
 305 57 305 57 232.5 132 c 128,-1,33
 160 207 160 207 120 311.5 c 128,-1,34
 80 416 80 416 80 545 c 0,35,36
 80 744 80 744 166 921 c 128,-1,37
 252 1098 252 1098 412 1221 c 0,38,39
 527 1309 527 1309 660 1355 c 128,-1,40
 793 1401 793 1401 940 1401 c 0,41,42
 1053 1401 1053 1401 1145 1384.5 c 128,-1,43
 1237 1368 1237 1368 1309 1339 c 1,44,-1
 1249 1014 l 1,0,-1
EndSplineSet
EndChar

StartChar: H
Encoding: 72 72 43
Width: 1458
GlyphClass: 2
Flags: W
LayerCount: 2
Fore
SplineSet
672 1374 m 1,0,-1
 672 1296 l 1,1,-1
 537 1286 l 1,2,-1
 506 1255 l 1,3,-1
 410 766 l 1,4,-1
 1077 766 l 1,5,-1
 1174 1255 l 1,6,-1
 1149 1286 l 1,7,-1
 1018 1296 l 1,8,-1
 1018 1374 l 1,9,-1
 1518 1374 l 1,10,-1
 1518 1296 l 1,11,-1
 1382 1286 l 1,12,-1
 1350 1255 l 1,13,-1
 1133 119 l 1,14,-1
 1153 90 l 1,15,-1
 1284 78 l 1,16,-1
 1284 0 l 1,17,-1
 788 0 l 1,18,-1
 788 78 l 1,19,-1
 922 90 l 1,20,-1
 952 119 l 1,21,-1
 1057 672 l 1,22,-1
 391 672 l 1,23,-1
 285 119 l 1,24,-1
 309 90 l 1,25,-1
 440 78 l 1,26,-1
 440 0 l 1,27,-1
 -57 0 l 1,28,-1
 -57 78 l 1,29,-1
 74 90 l 1,30,-1
 106 119 l 1,31,-1
 326 1255 l 1,32,-1
 305 1286 l 1,33,-1
 172 1296 l 1,34,-1
 172 1374 l 1,35,-1
 672 1374 l 1,0,-1
EndSplineSet
EndChar

StartChar: I
Encoding: 73 73 44
Width: 638
GlyphClass: 2
Flags: W
LayerCount: 2
Fore
SplineSet
682 1374 m 1,0,-1
 682 1296 l 1,1,-1
 547 1286 l 1,2,-1
 514 1255 l 1,3,-1
 295 119 l 1,4,-1
 319 90 l 1,5,-1
 453 78 l 1,6,-1
 453 0 l 1,7,-1
 -47 0 l 1,8,-1
 -47 78 l 1,9,-1
 84 90 l 1,10,-1
 117 119 l 1,11,-1
 336 1255 l 1,12,-1
 313 1286 l 1,13,-1
 182 1296 l 1,14,-1
 182 1374 l 1,15,-1
 682 1374 l 1,0,-1
EndSplineSet
EndChar

StartChar: J
Encoding: 74 74 45
Width: 915
GlyphClass: 2
Flags: W
LayerCount: 2
Fore
SplineSet
965 1374 m 1,0,-1
 965 1296 l 1,1,-1
 831 1286 l 1,2,-1
 799 1255 l 1,3,-1
 662 524 l 2,4,5
 635 381 635 381 598 277.5 c 128,-1,6
 561 174 561 174 503.5 106.5 c 128,-1,7
 446 39 446 39 364.5 7 c 128,-1,8
 283 -25 283 -25 166 -25 c 0,9,10
 19 -25 19 -25 -86 25 c 1,11,-1
 -18 369 l 1,12,-1
 84 369 l 1,13,-1
 84 109 l 1,14,-1
 109 82 l 1,15,16
 148 74 148 74 180 74 c 0,17,18
 252 74 252 74 299 101.5 c 128,-1,19
 346 129 346 129 379 184.5 c 128,-1,20
 412 240 412 240 433.5 323 c 128,-1,21
 455 406 455 406 477 516 c 2,22,-1
 621 1255 l 1,23,-1
 598 1286 l 1,24,-1
 467 1296 l 1,25,-1
 467 1374 l 1,26,-1
 965 1374 l 1,0,-1
EndSplineSet
EndChar

StartChar: K
Encoding: 75 75 46
Width: 1280
GlyphClass: 2
Flags: W
LayerCount: 2
Fore
SplineSet
666 1374 m 1,0,-1
 666 1296 l 1,1,-1
 532 1286 l 1,2,-1
 500 1255 l 1,3,-1
 389 696 l 1,4,-1
 449 696 l 1,5,-1
 1012 1251 l 1,6,-1
 999 1284 l 1,7,-1
 856 1294 l 1,8,-1
 856 1374 l 1,9,-1
 1352 1374 l 1,10,-1
 1352 1292 l 1,11,-1
 1182 1280 l 1,12,-1
 643 754 l 1,13,-1
 934 188 l 2,14,15
 950 157 950 157 966.5 136 c 128,-1,16
 983 115 983 115 1004.5 101.5 c 128,-1,17
 1026 88 1026 88 1056.5 83 c 128,-1,18
 1087 78 1087 78 1135 78 c 2,19,-1
 1176 78 l 1,20,-1
 1176 0 l 1,21,22
 1104 -4 1104 -4 1058 -6 c 128,-1,23
 1012 -8 1012 -8 991 -8 c 0,24,25
 936 -8 936 -8 901 -2 c 128,-1,26
 866 4 866 4 840.5 21.5 c 128,-1,27
 815 39 815 39 795.5 67.5 c 128,-1,28
 776 96 776 96 754 141 c 2,29,-1
 516 610 l 1,30,-1
 373 610 l 1,31,-1
 279 119 l 1,32,-1
 305 90 l 1,33,-1
 438 78 l 1,34,-1
 438 0 l 1,35,-1
 -61 0 l 1,36,-1
 -61 78 l 1,37,-1
 70 90 l 1,38,-1
 102 119 l 1,39,-1
 322 1255 l 1,40,-1
 299 1286 l 1,41,-1
 168 1296 l 1,42,-1
 168 1374 l 1,43,-1
 666 1374 l 1,0,-1
EndSplineSet
EndChar

StartChar: L
Encoding: 76 76 47
Width: 1019
GlyphClass: 2
Flags: W
LayerCount: 2
Fore
SplineSet
670 1374 m 1,0,-1
 670 1296 l 1,1,-1
 537 1286 l 1,2,-1
 504 1255 l 1,3,-1
 279 94 l 1,4,-1
 713 94 l 1,5,-1
 750 127 l 1,6,-1
 829 373 l 1,7,-1
 928 373 l 1,8,-1
 856 0 l 1,9,-1
 -57 0 l 1,10,-1
 -57 78 l 1,11,-1
 74 88 l 1,12,-1
 106 119 l 1,13,-1
 326 1255 l 1,14,-1
 305 1286 l 1,15,-1
 172 1296 l 1,16,-1
 172 1374 l 1,17,-1
 670 1374 l 1,0,-1
EndSplineSet
EndChar

StartChar: M
Encoding: 77 77 48
Width: 1718
GlyphClass: 2
Flags: W
LayerCount: 2
Fore
SplineSet
590 1374 m 1,0,-1
 590 1319 l 1,1,-1
 776 276 l 1,2,-1
 1350 1311 l 1,3,-1
 1350 1374 l 1,4,-1
 1776 1374 l 1,5,-1
 1776 1296 l 1,6,-1
 1647 1286 l 1,7,-1
 1614 1255 l 1,8,-1
 1397 119 l 1,9,-1
 1417 90 l 1,10,-1
 1548 78 l 1,11,-1
 1548 0 l 1,12,-1
 1063 0 l 1,13,-1
 1063 78 l 1,14,-1
 1210 90 l 1,15,-1
 1231 119 l 1,16,-1
 1450 1268 l 1,17,-1
 743 0 l 1,18,-1
 653 0 l 1,19,-1
 432 1262 l 1,20,-1
 219 119 l 1,21,-1
 250 90 l 1,22,-1
 371 78 l 1,23,-1
 371 0 l 1,24,-1
 -55 0 l 1,25,-1
 -55 78 l 1,26,-1
 74 90 l 1,27,-1
 106 119 l 1,28,-1
 324 1255 l 1,29,-1
 301 1286 l 1,30,-1
 172 1296 l 1,31,-1
 172 1374 l 1,32,-1
 590 1374 l 1,0,-1
EndSplineSet
EndChar

StartChar: N
Encoding: 78 78 49
Width: 1398
GlyphClass: 2
Flags: W
LayerCount: 2
Fore
SplineSet
518 1374 m 1,0,-1
 518 1323 l 1,1,-1
 1008 285 l 1,2,-1
 1196 1255 l 1,3,-1
 1176 1286 l 1,4,-1
 1044 1296 l 1,5,-1
 1044 1374 l 1,6,-1
 1475 1374 l 1,7,-1
 1475 1296 l 1,8,-1
 1343 1286 l 1,9,-1
 1311 1255 l 1,10,-1
 1071 0 l 1,11,-1
 952 0 l 1,12,-1
 414 1139 l 1,13,-1
 215 119 l 1,14,-1
 238 90 l 1,15,-1
 369 78 l 1,16,-1
 369 0 l 1,17,-1
 -63 0 l 1,18,-1
 -63 78 l 1,19,-1
 68 90 l 1,20,-1
 100 119 l 1,21,-1
 319 1255 l 1,22,-1
 299 1286 l 1,23,-1
 166 1296 l 1,24,-1
 166 1374 l 1,25,-1
 518 1374 l 1,0,-1
EndSplineSet
EndChar

StartChar: O
Encoding: 79 79 50
Width: 1449
GlyphClass: 2
Flags: W
LayerCount: 2
Fore
SplineSet
829 1397 m 0,0,1
 927 1397 927 1397 1008.5 1372.5 c 128,-1,2
 1090 1348 1090 1348 1151 1303 c 0,3,4
 1255 1225 1255 1225 1312.5 1110 c 128,-1,5
 1370 995 1370 995 1370 860 c 0,6,7
 1370 686 1370 686 1322 534.5 c 128,-1,8
 1274 383 1274 383 1182 264 c 0,9,10
 1076 125 1076 125 930 50 c 128,-1,11
 784 -25 784 -25 625 -25 c 0,12,13
 506 -25 506 -25 406.5 16 c 128,-1,14
 307 57 307 57 235.5 131 c 128,-1,15
 164 205 164 205 124 306.5 c 128,-1,16
 84 408 84 408 84 530 c 0,17,18
 84 690 84 690 133 837.5 c 128,-1,19
 182 985 182 985 276 1108 c 0,20,21
 380 1247 380 1247 525.5 1322 c 128,-1,22
 671 1397 671 1397 829 1397 c 0,0,1
1169 858 m 0,23,24
 1169 1067 1169 1067 1072 1185 c 128,-1,25
 975 1303 975 1303 815 1303 c 0,26,27
 711 1303 711 1303 615.5 1245.5 c 128,-1,28
 520 1188 520 1188 442 1071 c 0,29,30
 366 960 366 960 323.5 815 c 128,-1,31
 281 670 281 670 281 518 c 0,32,33
 281 416 281 416 306.5 333 c 128,-1,34
 332 250 332 250 379 192.5 c 128,-1,35
 426 135 426 135 490.5 104.5 c 128,-1,36
 555 74 555 74 635 74 c 0,37,38
 850 74 850 74 1008 305 c 0,39,40
 1082 416 1082 416 1125.5 560 c 128,-1,41
 1169 704 1169 704 1169 858 c 0,23,24
EndSplineSet
EndChar

StartChar: P
Encoding: 80 80 51
Width: 1110
GlyphClass: 2
Flags: W
LayerCount: 2
Fore
SplineSet
608 1374 m 2,0,1
 692 1374 692 1374 768 1369 c 128,-1,2
 844 1364 844 1364 915 1337 c 0,3,4
 1005 1304 1005 1304 1058.5 1226.5 c 128,-1,5
 1112 1149 1112 1149 1112 1051 c 0,6,7
 1112 934 1112 934 1069 835.5 c 128,-1,8
 1026 737 1026 737 944 666.5 c 128,-1,9
 862 596 862 596 746.5 556 c 128,-1,10
 631 516 631 516 487 516 c 0,11,12
 464 516 464 516 432.5 517 c 128,-1,13
 401 518 401 518 360 520 c 1,14,-1
 283 119 l 1,15,-1
 297 90 l 1,16,-1
 428 78 l 1,17,-1
 428 0 l 1,18,-1
 -57 0 l 1,19,-1
 -57 78 l 1,20,-1
 74 90 l 1,21,-1
 106 119 l 1,22,-1
 326 1255 l 1,23,-1
 303 1286 l 1,24,-1
 172 1296 l 1,25,-1
 172 1374 l 1,26,-1
 608 1374 l 2,0,1
379 616 m 1,27,28
 402 614 402 614 422 613 c 128,-1,29
 442 612 442 612 463 612 c 0,30,31
 684 612 684 612 803 718.5 c 128,-1,32
 922 825 922 825 922 1018 c 0,33,34
 922 1159 922 1159 842 1222.5 c 128,-1,35
 762 1286 762 1286 592 1286 c 0,36,37
 572 1286 572 1286 551 1285 c 128,-1,38
 530 1284 530 1284 508 1282 c 1,39,-1
 379 616 l 1,27,28
EndSplineSet
EndChar

StartChar: Q
Encoding: 81 81 52
Width: 1449
GlyphClass: 2
Flags: W
LayerCount: 2
Fore
SplineSet
1434 -233 m 1,0,1
 1340 -278 1340 -278 1259 -303 c 128,-1,2
 1178 -328 1178 -328 1106 -328 c 0,3,4
 977 -328 977 -328 892 -253 c 128,-1,5
 807 -178 807 -178 737 -16 c 1,6,7
 702 -20 702 -20 672.5 -22.5 c 128,-1,8
 643 -25 643 -25 618 -25 c 0,9,10
 503 -25 503 -25 405 16 c 128,-1,11
 307 57 307 57 235.5 131 c 128,-1,12
 164 205 164 205 123 306.5 c 128,-1,13
 82 408 82 408 82 528 c 0,14,15
 82 688 82 688 132 836.5 c 128,-1,16
 182 985 182 985 276 1108 c 0,17,18
 382 1247 382 1247 528 1322 c 128,-1,19
 674 1397 674 1397 834 1397 c 0,20,21
 928 1397 928 1397 1007.5 1372.5 c 128,-1,22
 1087 1348 1087 1348 1151 1300 c 0,23,24
 1255 1224 1255 1224 1312.5 1108.5 c 128,-1,25
 1370 993 1370 993 1370 858 c 0,26,27
 1370 582 1370 582 1252.5 369 c 128,-1,28
 1135 156 1135 156 918 39 c 1,29,30
 953 -29 953 -29 983.5 -77 c 128,-1,31
 1014 -125 1014 -125 1047.5 -156.5 c 128,-1,32
 1081 -188 1081 -188 1121 -202.5 c 128,-1,33
 1161 -217 1161 -217 1217 -217 c 0,34,35
 1252 -217 1252 -217 1307 -205 c 128,-1,36
 1362 -193 1362 -193 1434 -164 c 1,37,-1
 1434 -233 l 1,0,1
279 518 m 0,38,39
 279 418 279 418 304.5 336 c 128,-1,40
 330 254 330 254 377 195.5 c 128,-1,41
 424 137 424 137 489.5 105.5 c 128,-1,42
 555 74 555 74 635 74 c 0,43,44
 850 74 850 74 1008 305 c 0,45,46
 1082 416 1082 416 1125.5 560.5 c 128,-1,47
 1169 705 1169 705 1169 858 c 0,48,49
 1169 962 1169 962 1143.5 1044 c 128,-1,50
 1118 1126 1118 1126 1072 1183.5 c 128,-1,51
 1026 1241 1026 1241 961.5 1272 c 128,-1,52
 897 1303 897 1303 817 1303 c 0,53,54
 602 1303 602 1303 442 1071 c 0,55,56
 366 960 366 960 322.5 814 c 128,-1,57
 279 668 279 668 279 518 c 0,38,39
EndSplineSet
EndChar

StartChar: R
Encoding: 82 82 53
Width: 1232
GlyphClass: 2
Flags: W
LayerCount: 2
Fore
SplineSet
674 1374 m 2,0,1
 893 1374 893 1374 999.5 1304.5 c 128,-1,2
 1106 1235 1106 1235 1106 1075 c 0,3,4
 1106 917 1106 917 1001.5 804.5 c 128,-1,5
 897 692 897 692 698 649 c 1,6,7
 766 635 766 635 806 603 c 128,-1,8
 846 571 846 571 871.5 524 c 128,-1,9
 897 477 897 477 913.5 416.5 c 128,-1,10
 930 356 930 356 950 285 c 0,11,12
 966 226 966 226 983.5 186.5 c 128,-1,13
 1001 147 1001 147 1027 122.5 c 128,-1,14
 1053 98 1053 98 1091.5 88 c 128,-1,15
 1130 78 1130 78 1190 78 c 2,16,-1
 1208 78 l 1,17,-1
 1208 2 l 1,18,19
 1112 -10 1112 -10 1065 -10 c 0,20,21
 938 -10 938 -10 877 41 c 0,22,23
 822 88 822 88 799 166 c 128,-1,24
 776 244 776 244 754 348 c 0,25,26
 744 393 744 393 734.5 431 c 128,-1,27
 725 469 725 469 710.5 499.5 c 128,-1,28
 696 530 696 530 672.5 554 c 128,-1,29
 649 578 649 578 610 596 c 0,30,31
 577 612 577 612 492 612 c 0,32,33
 467 612 467 612 439.5 611 c 128,-1,34
 412 610 412 610 379 608 c 1,35,-1
 283 117 l 1,36,-1
 307 88 l 1,37,-1
 440 78 l 1,38,-1
 440 0 l 1,39,-1
 -59 0 l 1,40,-1
 -59 78 l 1,41,-1
 72 88 l 1,42,-1
 104 117 l 1,43,-1
 324 1255 l 1,44,-1
 301 1284 l 1,45,-1
 156 1296 l 1,46,-1
 156 1374 l 1,47,-1
 674 1374 l 2,0,1
397 707 m 1,48,49
 417 705 417 705 436 705 c 128,-1,50
 455 705 455 705 473 705 c 0,51,52
 688 705 688 705 799.5 795 c 128,-1,53
 911 885 911 885 911 1044 c 0,54,55
 911 1167 911 1167 833.5 1224.5 c 128,-1,56
 756 1282 756 1282 594 1282 c 0,57,58
 574 1282 574 1282 552 1281 c 128,-1,59
 530 1280 530 1280 508 1278 c 1,60,-1
 397 707 l 1,48,49
EndSplineSet
EndChar

StartChar: S
Encoding: 83 83 54
Width: 1099
GlyphClass: 2
Flags: W
LayerCount: 2
Fore
SplineSet
981 1026 m 1,0,-1
 891 1026 l 1,1,-1
 899 1229 l 1,2,-1
 874 1266 l 1,3,4
 788 1305 788 1305 696 1305 c 0,5,6
 624 1305 624 1305 565 1283.5 c 128,-1,7
 506 1262 506 1262 463 1225 c 128,-1,8
 420 1188 420 1188 396.5 1137.5 c 128,-1,9
 373 1087 373 1087 373 1030 c 0,10,11
 373 975 373 975 391.5 937 c 128,-1,12
 410 899 410 899 443.5 870.5 c 128,-1,13
 477 842 477 842 527.5 817.5 c 128,-1,14
 578 793 578 793 643 762 c 0,15,16
 719 727 719 727 776.5 692 c 128,-1,17
 834 657 834 657 872.5 617.5 c 128,-1,18
 911 578 911 578 930.5 528.5 c 128,-1,19
 950 479 950 479 950 414 c 0,20,21
 950 320 950 320 909 240 c 128,-1,22
 868 160 868 160 795.5 101.5 c 128,-1,23
 723 43 723 43 620.5 9 c 128,-1,24
 518 -25 518 -25 395 -25 c 0,25,26
 188 -25 188 -25 18 70 c 1,27,-1
 86 395 l 1,28,-1
 193 395 l 1,29,-1
 172 160 l 1,30,-1
 193 133 l 1,31,32
 312 74 312 74 420 74 c 0,33,34
 580 74 580 74 675 156 c 128,-1,35
 770 238 770 238 770 373 c 0,36,37
 770 422 770 422 753.5 454.5 c 128,-1,38
 737 487 737 487 707.5 513 c 128,-1,39
 678 539 678 539 636 560.5 c 128,-1,40
 594 582 594 582 545 606 c 0,41,42
 465 647 465 647 400.5 685 c 128,-1,43
 336 723 336 723 291 764 c 128,-1,44
 246 805 246 805 222.5 853 c 128,-1,45
 199 901 199 901 199 963 c 0,46,47
 199 1055 199 1055 234.5 1133.5 c 128,-1,48
 270 1212 270 1212 336.5 1270.5 c 128,-1,49
 403 1329 403 1329 496.5 1363 c 128,-1,50
 590 1397 590 1397 705 1397 c 0,51,52
 793 1397 793 1397 878 1382.5 c 128,-1,53
 963 1368 963 1368 1047 1337 c 1,54,-1
 981 1026 l 1,0,-1
EndSplineSet
EndChar

StartChar: T
Encoding: 84 84 55
Width: 1157
GlyphClass: 2
Flags: W
LayerCount: 2
Fore
SplineSet
1249 1374 m 1,0,-1
 1188 1069 l 1,1,-1
 1077 1069 l 1,2,-1
 1085 1260 l 1,3,-1
 1063 1290 l 1,4,-1
 772 1290 l 1,5,-1
 547 119 l 1,6,-1
 573 90 l 1,7,-1
 707 78 l 1,8,-1
 707 0 l 1,9,-1
 207 0 l 1,10,-1
 207 78 l 1,11,-1
 338 90 l 1,12,-1
 371 119 l 1,13,-1
 590 1290 l 1,14,-1
 301 1290 l 1,15,-1
 266 1260 l 1,16,-1
 201 1069 l 1,17,-1
 88 1069 l 1,18,-1
 147 1374 l 1,19,-1
 1249 1374 l 1,0,-1
EndSplineSet
EndChar

StartChar: U
Encoding: 85 85 56
Width: 1359
GlyphClass: 2
Flags: W
LayerCount: 2
Fore
SplineSet
647 1374 m 1,0,-1
 647 1296 l 1,1,-1
 514 1286 l 1,2,-1
 481 1255 l 1,3,-1
 336 510 l 2,4,5
 318 414 318 414 317 356 c 0,6,7
 317 233 317 233 392 167.5 c 128,-1,8
 467 102 467 102 608 102 c 0,9,10
 702 102 702 102 773 127 c 128,-1,11
 844 152 844 152 893 203 c 128,-1,12
 942 254 942 254 974 330 c 128,-1,13
 1006 406 1006 406 1026 510 c 2,14,-1
 1171 1255 l 1,15,-1
 1147 1286 l 1,16,-1
 1014 1296 l 1,17,-1
 1014 1374 l 1,18,-1
 1442 1374 l 1,19,-1
 1442 1296 l 1,20,-1
 1313 1286 l 1,21,-1
 1278 1255 l 1,22,-1
 1128 492 l 2,23,24
 1118 441 1118 441 1108 393.5 c 128,-1,25
 1098 346 1098 346 1081.5 301 c 128,-1,26
 1065 256 1065 256 1040.5 213 c 128,-1,27
 1016 170 1016 170 977 131 c 0,28,29
 905 59 905 59 796.5 18 c 128,-1,30
 688 -23 688 -23 551 -23 c 0,31,32
 346 -23 346 -23 238.5 62 c 128,-1,33
 131 147 131 147 131 311 c 0,34,35
 131 346 131 346 138 391 c 128,-1,36
 145 436 145 436 156 492 c 2,37,-1
 303 1255 l 1,38,-1
 281 1286 l 1,39,-1
 150 1296 l 1,40,-1
 150 1374 l 1,41,-1
 647 1374 l 1,0,-1
EndSplineSet
EndChar

StartChar: V
Encoding: 86 86 57
Width: 1208
GlyphClass: 2
Flags: W
LayerCount: 2
Fore
SplineSet
492 1374 m 1,0,-1
 492 1296 l 1,1,-1
 377 1286 l 1,2,-1
 362 1255 l 1,3,-1
 524 188 l 1,4,-1
 1079 1255 l 1,5,-1
 1063 1286 l 1,6,-1
 944 1296 l 1,7,-1
 944 1374 l 1,8,-1
 1329 1374 l 1,9,-1
 1329 1296 l 1,10,-1
 1221 1284 l 1,11,-1
 518 -10 l 1,12,-1
 391 -10 l 1,13,-1
 193 1249 l 1,14,-1
 160 1286 l 1,15,-1
 63 1296 l 1,16,-1
 63 1374 l 1,17,-1
 492 1374 l 1,0,-1
EndSplineSet
EndChar

StartChar: W
Encoding: 87 87 58
Width: 1839
GlyphClass: 2
Flags: W
LayerCount: 2
Fore
SplineSet
543 1374 m 1,0,-1
 543 1296 l 1,1,-1
 426 1286 l 1,2,-1
 412 1255 l 1,3,-1
 487 291 l 1,4,-1
 995 1374 l 1,5,-1
 1128 1374 l 1,6,-1
 1243 276 l 1,7,-1
 1692 1255 l 1,8,-1
 1675 1286 l 1,9,-1
 1554 1296 l 1,10,-1
 1554 1374 l 1,11,-1
 1948 1374 l 1,12,-1
 1948 1296 l 1,13,-1
 1829 1284 l 1,14,-1
 1229 0 l 1,15,-1
 1112 0 l 1,16,-1
 991 1124 l 1,17,-1
 469 0 l 1,18,-1
 340 0 l 1,19,-1
 238 1249 l 1,20,-1
 203 1286 l 1,21,-1
 104 1296 l 1,22,-1
 104 1374 l 1,23,-1
 543 1374 l 1,0,-1
EndSplineSet
EndChar

StartChar: X
Encoding: 88 88 59
Width: 1165
GlyphClass: 2
Flags: W
LayerCount: 2
Fore
SplineSet
608 1374 m 1,0,-1
 608 1296 l 1,1,-1
 473 1286 l 1,2,-1
 442 1255 l 1,3,-1
 625 831 l 1,4,-1
 997 1255 l 1,5,-1
 985 1286 l 1,6,-1
 868 1296 l 1,7,-1
 868 1374 l 1,8,-1
 1294 1374 l 1,9,-1
 1294 1296 l 1,10,-1
 1151 1286 l 1,11,-1
 672 737 l 1,12,-1
 942 119 l 1,13,-1
 963 90 l 1,14,-1
 1094 78 l 1,15,-1
 1094 0 l 1,16,-1
 598 0 l 1,17,-1
 598 78 l 1,18,-1
 731 90 l 1,19,-1
 764 119 l 1,20,-1
 563 590 l 1,21,-1
 141 119 l 1,22,-1
 162 90 l 1,23,-1
 295 78 l 1,24,-1
 295 0 l 1,25,-1
 -170 0 l 1,26,-1
 -170 78 l 1,27,-1
 -37 90 l 1,28,-1
 -2 119 l 1,29,-1
 508 696 l 1,30,-1
 262 1255 l 1,31,-1
 242 1286 l 1,32,-1
 111 1296 l 1,33,-1
 111 1374 l 1,34,-1
 608 1374 l 1,0,-1
EndSplineSet
EndChar

StartChar: Y
Encoding: 89 89 60
Width: 1150
GlyphClass: 2
Flags: W
LayerCount: 2
Fore
SplineSet
561 1374 m 1,0,-1
 561 1296 l 1,1,-1
 428 1286 l 1,2,-1
 395 1255 l 1,3,-1
 580 676 l 1,4,-1
 1008 1255 l 1,5,-1
 987 1286 l 1,6,-1
 856 1296 l 1,7,-1
 856 1374 l 1,8,-1
 1315 1374 l 1,9,-1
 1315 1296 l 1,10,-1
 1180 1286 l 1,11,-1
 1147 1255 l 1,12,-1
 627 575 l 1,13,-1
 537 119 l 1,14,-1
 563 90 l 1,15,-1
 696 78 l 1,16,-1
 696 0 l 1,17,-1
 199 0 l 1,18,-1
 199 78 l 1,19,-1
 328 90 l 1,20,-1
 360 119 l 1,21,-1
 446 557 l 1,22,-1
 217 1255 l 1,23,-1
 197 1286 l 1,24,-1
 63 1296 l 1,25,-1
 63 1374 l 1,26,-1
 561 1374 l 1,0,-1
EndSplineSet
EndChar

StartChar: Z
Encoding: 90 90 61
Width: 1138
GlyphClass: 2
Flags: W
LayerCount: 2
Fore
SplineSet
1171 1374 m 1,0,-1
 1153 1288 l 1,1,-1
 184 100 l 1,2,-1
 770 100 l 1,3,-1
 799 127 l 1,4,-1
 881 371 l 1,5,-1
 981 371 l 1,6,-1
 911 0 l 1,7,-1
 -51 0 l 1,8,-1
 -37 84 l 1,9,-1
 930 1276 l 1,10,-1
 422 1276 l 1,11,-1
 377 1249 l 1,12,-1
 307 1057 l 1,13,-1
 201 1057 l 1,14,-1
 262 1374 l 1,15,-1
 1171 1374 l 1,0,-1
EndSplineSet
EndChar

StartChar: bracketleft
Encoding: 91 91 62
Width: 862
GlyphClass: 2
Flags: W
LayerCount: 2
Fore
SplineSet
915 1450 m 1,0,-1
 899 1362 l 1,1,-1
 575 1362 l 1,2,-1
 279 -184 l 1,3,-1
 602 -184 l 1,4,-1
 586 -272 l 1,5,-1
 100 -272 l 1,6,-1
 430 1450 l 1,7,-1
 915 1450 l 1,0,-1
EndSplineSet
EndChar

StartChar: backslash
Encoding: 92 92 63
Width: 985
GlyphClass: 2
Flags: W
LayerCount: 2
Fore
SplineSet
999 -190 m 1,0,-1
 885 -190 l 1,1,-1
 72 1374 l 1,2,-1
 188 1374 l 1,3,-1
 999 -190 l 1,0,-1
EndSplineSet
EndChar

StartChar: bracketright
Encoding: 93 93 64
Width: 862
GlyphClass: 2
Flags: W
LayerCount: 2
Fore
SplineSet
725 1450 m 1,0,-1
 395 -272 l 1,1,-1
 -90 -272 l 1,2,-1
 -74 -184 l 1,3,-1
 250 -184 l 1,4,-1
 547 1362 l 1,5,-1
 223 1362 l 1,6,-1
 240 1450 l 1,7,-1
 725 1450 l 1,0,-1
EndSplineSet
EndChar

StartChar: asciicircum
Encoding: 94 94 65
Width: 2048
GlyphClass: 2
Flags: W
LayerCount: 2
Fore
SplineSet
1112 1462 m 1,0,-1
 1632 897 l 1,1,-1
 1540 897 l 1,2,-1
 1022 1333 l 1,3,-1
 502 897 l 1,4,-1
 412 897 l 1,5,-1
 934 1462 l 1,6,-1
 1112 1462 l 1,0,-1
EndSplineSet
EndChar

StartChar: underscore
Encoding: 95 95 66
Width: 1024
GlyphClass: 2
Flags: W
LayerCount: 2
Fore
SplineSet
1024 -365 m 1,0,-1
 1024 -483 l 1,1,-1
 0 -483 l 1,2,-1
 0 -365 l 1,3,-1
 1024 -365 l 1,0,-1
EndSplineSet
EndChar

StartChar: grave
Encoding: 96 96 67
Width: 1024
GlyphClass: 2
Flags: W
LayerCount: 2
Fore
SplineSet
573 1507 m 1,0,-1
 696 1118 l 1,1,-1
 594 1118 l 1,2,-1
 371 1507 l 1,3,-1
 573 1507 l 1,0,-1
EndSplineSet
EndChar

StartChar: a
Encoding: 97 97 68
Width: 1075
GlyphClass: 2
Flags: W
LayerCount: 2
Fore
SplineSet
946 987 m 1,0,1
 913 919 913 919 868 694 c 2,2,-1
 795 332 l 2,3,4
 775 236 775 236 774 188 c 0,5,6
 774 94 774 94 885 94 c 0,7,8
 901 94 901 94 929.5 99 c 128,-1,9
 958 104 958 104 999 115 c 1,10,-1
 999 53 l 1,11,12
 827 -19 827 -19 748 -18 c 0,13,14
 623 -18 623 -18 623 137 c 2,15,-1
 623 154 l 1,16,17
 541 68 541 68 466 25 c 128,-1,18
 391 -18 391 -18 317 -18 c 0,19,20
 186 -18 186 -18 110.5 76 c 128,-1,21
 35 170 35 170 35 340 c 0,22,23
 35 543 35 543 141 719 c 0,24,25
 219 848 219 848 340 917.5 c 128,-1,26
 461 987 461 987 614 987 c 0,27,28
 657 987 657 987 704.5 976 c 128,-1,29
 752 965 752 965 799 942 c 1,30,-1
 840 987 l 1,31,-1
 946 987 l 1,0,1
621 907 m 2,32,33
 531 907 531 907 455 866 c 128,-1,34
 379 825 379 825 323.5 751.5 c 128,-1,35
 268 678 268 678 236.5 576.5 c 128,-1,36
 205 475 205 475 205 352 c 0,37,38
 205 106 205 106 383 106 c 0,39,40
 498 106 498 106 625 242 c 1,41,-1
 731 782 l 1,42,-1
 649 907 l 1,43,-1
 621 907 l 2,32,33
EndSplineSet
EndChar

StartChar: b
Encoding: 98 98 69
Width: 1038
GlyphClass: 2
Flags: W
LayerCount: 2
Fore
SplineSet
492 1507 m 1,0,1
 478 1464 478 1464 466.5 1418 c 128,-1,2
 455 1372 455 1372 444 1319 c 2,3,-1
 356 838 l 1,4,5
 536 992 536 992 659 991 c 0,6,7
 776 991 776 991 851 897 c 128,-1,8
 926 803 926 803 926 643 c 0,9,10
 926 510 926 510 885 391 c 128,-1,11
 844 272 844 272 766 176 c 256,12,13
 688 80 688 80 583.5 31 c 128,-1,14
 479 -18 479 -18 362 -18 c 0,15,16
 194 -18 194 -18 51 72 c 1,17,-1
 291 1362 l 1,18,-1
 113 1395 l 1,19,-1
 113 1446 l 1,20,-1
 424 1507 l 1,21,-1
 492 1507 l 1,0,1
225 147 m 1,22,23
 307 65 307 65 408 66 c 0,24,25
 539 66 539 66 643 223 c 0,26,27
 692 297 692 297 725 403.5 c 128,-1,28
 758 510 758 510 758 616 c 0,29,30
 758 735 758 735 711 800.5 c 128,-1,31
 664 866 664 866 588 866 c 0,32,33
 533 866 533 866 474.5 837.5 c 128,-1,34
 416 809 416 809 342 758 c 1,35,-1
 225 147 l 1,22,23
EndSplineSet
EndChar

StartChar: c
Encoding: 99 99 70
Width: 806
GlyphClass: 2
Flags: W
LayerCount: 2
Fore
SplineSet
510 893 m 1,0,-1
 500 893 l 2,1,2
 439 893 439 893 382.5 856 c 128,-1,3
 326 819 326 819 284 751.5 c 128,-1,4
 242 684 242 684 217.5 590 c 128,-1,5
 193 496 193 496 193 381 c 0,6,7
 193 246 193 246 247 174 c 128,-1,8
 301 102 301 102 397 102 c 0,9,10
 469 102 469 102 551 144 c 128,-1,11
 633 186 633 186 717 272 c 1,12,-1
 717 178 l 1,13,14
 621 78 621 78 523.5 29 c 128,-1,15
 426 -20 426 -20 334 -20 c 0,16,17
 199 -20 199 -20 115 79 c 128,-1,18
 31 178 31 178 31 352 c 0,19,20
 31 489 31 489 75 607 c 128,-1,21
 119 725 119 725 201 815 c 0,22,23
 279 901 279 901 375 947 c 128,-1,24
 471 993 471 993 567 993 c 0,25,26
 653 993 653 993 705.5 951 c 128,-1,27
 758 909 758 909 758 850 c 0,28,29
 758 803 758 803 723 771 c 128,-1,30
 688 739 688 739 629 737 c 1,31,-1
 510 893 l 1,0,-1
EndSplineSet
EndChar

StartChar: d
Encoding: 100 100 71
Width: 1071
GlyphClass: 2
Flags: W
LayerCount: 2
Fore
SplineSet
1026 1507 m 1,0,-1
 807 281 l 2,1,2
 795 213 795 213 795 170 c 0,3,4
 795 84 795 84 885 84 c 0,5,6
 922 84 922 84 1018 106 c 1,7,-1
 1018 45 l 1,8,9
 932 14 932 14 869.5 0 c 128,-1,10
 807 -14 807 -14 766 -14 c 0,11,12
 629 -14 629 -14 629 131 c 0,13,14
 629 141 629 141 629 151.5 c 128,-1,15
 629 162 629 162 631 172 c 1,16,17
 479 -18 479 -18 311 -18 c 0,18,19
 188 -18 188 -18 115.5 77 c 128,-1,20
 43 172 43 172 43 348 c 0,21,22
 43 559 43 559 143 719 c 0,23,24
 227 850 227 850 351 922.5 c 128,-1,25
 475 995 475 995 604 995 c 0,26,27
 690 995 690 995 768 961 c 1,28,-1
 840 1370 l 1,29,-1
 659 1391 l 1,30,-1
 659 1448 l 1,31,-1
 973 1507 l 1,32,-1
 1026 1507 l 1,0,-1
641 909 m 1,33,34
 627 911 627 911 614.5 913 c 128,-1,35
 602 915 602 915 592 915 c 0,36,37
 522 915 522 915 453.5 875.5 c 128,-1,38
 385 836 385 836 330.5 762 c 128,-1,39
 276 688 276 688 242.5 583.5 c 128,-1,40
 209 479 209 479 209 350 c 0,41,42
 209 227 209 227 257 162.5 c 128,-1,43
 305 98 305 98 385 98 c 0,44,45
 442 98 442 98 510 141 c 128,-1,46
 578 184 578 184 647 272 c 1,47,-1
 739 793 l 1,48,-1
 641 909 l 1,33,34
EndSplineSet
EndChar

StartChar: e
Encoding: 101 101 72
Width: 868
GlyphClass: 2
Flags: W
LayerCount: 2
Fore
SplineSet
225 524 m 1,0,1
 321 530 321 530 396 554 c 128,-1,2
 471 578 471 578 522 614.5 c 128,-1,3
 573 651 573 651 600 696 c 128,-1,4
 627 741 627 741 627 791 c 0,5,6
 627 838 627 838 596 869.5 c 128,-1,7
 565 901 565 901 520 901 c 0,8,9
 430 901 430 901 350 805.5 c 128,-1,10
 270 710 270 710 225 524 c 1,0,1
215 455 m 1,11,12
 209 412 209 412 209 360 c 0,13,14
 209 235 209 235 266.5 164.5 c 128,-1,15
 324 94 324 94 422 94 c 0,16,17
 494 94 494 94 576.5 136 c 128,-1,18
 659 178 659 178 750 262 c 1,19,-1
 750 166 l 1,20,21
 560 -18 560 -18 352 -18 c 0,22,23
 207 -18 207 -18 125 78 c 128,-1,24
 43 174 43 174 43 354 c 0,25,26
 43 483 43 483 91 605 c 128,-1,27
 139 727 139 727 225 819 c 0,28,29
 303 901 303 901 395 944 c 128,-1,30
 487 987 487 987 563 987 c 0,31,32
 661 987 661 987 717.5 932 c 128,-1,33
 774 877 774 877 774 784 c 0,34,35
 774 653 774 653 631.5 563 c 128,-1,36
 489 473 489 473 215 455 c 1,11,12
EndSplineSet
EndChar

StartChar: f
Encoding: 102 102 73
Width: 598
GlyphClass: 2
Flags: W
LayerCount: 2
Fore
SplineSet
557 1409 m 1,0,1
 440 1333 440 1333 373 932 c 1,2,-1
 662 932 l 1,3,-1
 662 840 l 1,4,-1
 356 840 l 1,5,-1
 274 258 l 2,6,7
 254 117 254 117 221 1 c 128,-1,8
 188 -115 188 -115 121 -211 c 0,9,10
 39 -328 39 -328 -43 -385 c 128,-1,11
 -125 -442 -125 -442 -199 -442 c 0,12,13
 -248 -442 -248 -442 -278.5 -412.5 c 128,-1,14
 -309 -383 -309 -383 -309 -334 c 256,15,16
 -309 -285 -309 -285 -264 -252 c 1,17,-1
 -51 -307 l 1,18,19
 21 -231 21 -231 55.5 -92 c 128,-1,20
 90 47 90 47 119 252 c 2,21,-1
 205 840 l 1,22,-1
 68 825 l 1,23,-1
 70 893 l 1,24,-1
 225 956 l 1,25,26
 276 1222 276 1222 394 1360.5 c 128,-1,27
 512 1499 512 1499 655 1499 c 0,28,29
 729 1499 729 1499 777 1462 c 128,-1,30
 825 1425 825 1425 825 1378 c 0,31,32
 825 1337 825 1337 798.5 1309.5 c 128,-1,33
 772 1282 772 1282 725 1272 c 1,34,-1
 557 1409 l 1,0,1
EndSplineSet
EndChar

StartChar: g
Encoding: 103 103 74
Width: 985
GlyphClass: 2
Flags: W
LayerCount: 2
Fore
SplineSet
983 938 m 1,0,-1
 983 850 l 1,1,-1
 772 850 l 1,2,3
 799 782 799 782 799 715 c 0,4,5
 799 631 799 631 767 559 c 128,-1,6
 735 487 735 487 681 436 c 128,-1,7
 627 385 627 385 556 356.5 c 128,-1,8
 485 328 485 328 406 328 c 0,9,10
 402 328 402 328 390.5 328 c 128,-1,11
 379 328 379 328 358 330 c 1,12,13
 331 279 331 279 332 221 c 2,14,-1
 332 209 l 1,15,-1
 657 61 l 2,16,17
 817 -13 817 -13 817 -141 c 0,18,19
 817 -198 817 -198 779 -252.5 c 128,-1,20
 741 -307 741 -307 675.5 -350 c 128,-1,21
 610 -393 610 -393 520 -419.5 c 128,-1,22
 430 -446 430 -446 324 -446 c 0,23,24
 144 -446 144 -446 40.5 -371.5 c 128,-1,25
 -63 -297 -63 -297 -63 -174 c 0,26,27
 -63 -76 -63 -76 3.5 -9.5 c 128,-1,28
 70 57 70 57 209 111 c 1,29,30
 207 121 207 121 207 128 c 128,-1,31
 207 135 207 135 207 145 c 0,32,33
 207 241 207 241 289 344 c 1,34,35
 197 381 197 381 148.5 445.5 c 128,-1,36
 100 510 100 510 100 592 c 0,37,38
 100 676 100 676 131 748.5 c 128,-1,39
 162 821 162 821 216 874.5 c 128,-1,40
 270 928 270 928 343 958.5 c 128,-1,41
 416 989 416 989 500 989 c 0,42,43
 549 989 549 989 596 976 c 128,-1,44
 643 963 643 963 690 938 c 1,45,-1
 983 938 l 1,0,-1
637 727 m 0,46,47
 637 819 637 819 600 866 c 128,-1,48
 563 913 563 913 498 913 c 0,49,50
 453 913 453 913 411 886.5 c 128,-1,51
 369 860 369 860 336 814 c 128,-1,52
 303 768 303 768 282.5 704.5 c 128,-1,53
 262 641 262 641 262 569 c 0,54,55
 262 485 262 485 299 441 c 128,-1,56
 336 397 336 397 399 397 c 0,57,58
 442 397 442 397 485 423 c 128,-1,59
 528 449 528 449 562 493 c 128,-1,60
 596 537 596 537 616.5 597 c 128,-1,61
 637 657 637 657 637 727 c 0,46,47
285 70 m 1,62,63
 97 27 97 27 96 -133 c 0,64,65
 96 -231 96 -231 173 -295.5 c 128,-1,66
 250 -360 250 -360 373 -360 c 0,67,68
 508 -360 508 -360 583.5 -306 c 128,-1,69
 659 -252 659 -252 659 -182 c 0,70,71
 659 -102 659 -102 545 -51 c 2,72,-1
 285 70 l 1,62,63
EndSplineSet
EndChar

StartChar: h
Encoding: 104 104 75
Width: 1128
GlyphClass: 2
Flags: W
LayerCount: 2
Fore
SplineSet
520 1507 m 1,0,1
 500 1433 500 1433 480.5 1343 c 128,-1,2
 461 1253 461 1253 438 1145 c 2,3,-1
 371 795 l 1,4,5
 492 893 492 893 588 941 c 128,-1,6
 684 989 684 989 764 989 c 256,7,8
 844 989 844 989 890 945 c 128,-1,9
 936 901 936 901 936 825 c 0,10,11
 936 786 936 786 928 741 c 128,-1,12
 920 696 920 696 907 641 c 2,13,-1
 836 324 l 2,14,15
 826 283 826 283 820.5 250 c 128,-1,16
 815 217 815 217 815 190 c 0,17,18
 815 88 815 88 920 88 c 0,19,20
 963 88 963 88 1034 106 c 1,21,-1
 1034 51 l 1,22,23
 952 18 952 18 890.5 3 c 128,-1,24
 829 -12 829 -12 788 -12 c 0,25,26
 638 -12 638 -12 639 113 c 0,27,28
 639 158 639 158 653 221 c 2,29,-1
 741 600 l 2,30,31
 751 645 751 645 756.5 678 c 128,-1,32
 762 711 762 711 762 731 c 0,33,34
 762 797 762 797 736.5 829.5 c 128,-1,35
 711 862 711 862 651 862 c 0,36,37
 600 862 600 862 522 821 c 128,-1,38
 444 780 444 780 348 694 c 1,39,-1
 221 0 l 1,40,-1
 47 0 l 1,41,-1
 328 1372 l 1,42,-1
 135 1389 l 1,43,-1
 135 1440 l 1,44,-1
 457 1507 l 1,45,-1
 520 1507 l 1,0,1
EndSplineSet
EndChar

StartChar: i
Encoding: 105 105 76
Width: 587
GlyphClass: 2
Flags: W
LayerCount: 2
Fore
SplineSet
412 1442 m 0,0,1
 457 1442 457 1442 489.5 1409 c 128,-1,2
 522 1376 522 1376 522 1331 c 0,3,4
 522 1284 522 1284 489.5 1252.5 c 128,-1,5
 457 1221 457 1221 412 1221 c 0,6,7
 365 1221 365 1221 333 1252.5 c 128,-1,8
 301 1284 301 1284 301 1331 c 256,9,10
 301 1378 301 1378 333 1410 c 128,-1,11
 365 1442 365 1442 412 1442 c 0,0,1
424 987 m 1,12,-1
 276 221 l 2,13,14
 270 186 270 186 270 170 c 0,15,16
 270 90 270 90 369 90 c 0,17,18
 424 90 424 90 520 121 c 1,19,-1
 520 57 l 1,20,21
 348 -15 348 -15 231 -14 c 0,22,23
 100 -14 100 -14 100 121 c 0,24,25
 100 160 100 160 113 227 c 2,26,-1
 233 838 l 1,27,-1
 68 868 l 1,28,-1
 68 922 l 1,29,-1
 371 987 l 1,30,-1
 424 987 l 1,12,-1
EndSplineSet
EndChar

StartChar: j
Encoding: 106 106 77
Width: 550
GlyphClass: 2
Flags: W
LayerCount: 2
Fore
SplineSet
399 1436 m 0,0,1
 444 1436 444 1436 477 1404 c 128,-1,2
 510 1372 510 1372 510 1325 c 256,3,4
 510 1278 510 1278 477 1246 c 128,-1,5
 444 1214 444 1214 399 1214 c 0,6,7
 352 1214 352 1214 320.5 1246 c 128,-1,8
 289 1278 289 1278 289 1325 c 256,9,10
 289 1372 289 1372 320.5 1404 c 128,-1,11
 352 1436 352 1436 399 1436 c 0,0,1
436 987 m 1,12,-1
 322 258 l 2,13,14
 312 192 312 192 300.5 131 c 128,-1,15
 289 70 289 70 272.5 11.5 c 128,-1,16
 256 -47 256 -47 230.5 -103.5 c 128,-1,17
 205 -160 205 -160 166 -213 c 0,18,19
 84 -330 84 -330 1 -386 c 128,-1,20
 -82 -442 -82 -442 -154 -442 c 0,21,22
 -203 -442 -203 -442 -232.5 -412.5 c 128,-1,23
 -262 -383 -262 -383 -262 -334 c 256,24,25
 -262 -285 -262 -285 -217 -252 c 1,26,-1
 -6 -307 l 1,27,28
 33 -266 33 -266 58.5 -210 c 128,-1,29
 84 -154 84 -154 102.5 -84 c 128,-1,30
 121 -14 121 -14 135.5 70 c 128,-1,31
 150 154 150 154 166 252 c 2,32,-1
 258 856 l 1,33,-1
 51 881 l 1,34,-1
 51 928 l 1,35,-1
 362 987 l 1,36,-1
 436 987 l 1,12,-1
EndSplineSet
EndChar

StartChar: k
Encoding: 107 107 78
Width: 1052
GlyphClass: 2
Flags: W
LayerCount: 2
Fore
SplineSet
518 1507 m 1,0,-1
 299 487 l 1,1,-1
 678 879 l 2,2,3
 784 988 784 988 858 987 c 0,4,5
 909 987 909 987 942 957.5 c 128,-1,6
 975 928 975 928 975 883 c 0,7,8
 975 801 975 801 862 756 c 1,9,-1
 788 836 l 1,10,11
 722 789 722 789 657 732.5 c 128,-1,12
 592 676 592 676 524 614 c 1,13,14
 581 481 581 481 628.5 383 c 128,-1,15
 676 285 676 285 719 219.5 c 128,-1,16
 762 154 762 154 806 121 c 128,-1,17
 850 88 850 88 903 88 c 0,18,19
 926 88 926 88 952.5 92 c 128,-1,20
 979 96 979 96 1010 102 c 1,21,-1
 1010 45 l 1,22,23
 920 16 920 16 859.5 3 c 128,-1,24
 799 -10 799 -10 770 -10 c 0,25,26
 709 -10 709 -10 663.5 29 c 128,-1,27
 618 68 618 68 578 147 c 2,28,-1
 403 500 l 1,29,-1
 287 393 l 1,30,-1
 221 0 l 1,31,-1
 51 0 l 1,32,-1
 328 1380 l 1,33,-1
 139 1391 l 1,34,-1
 139 1448 l 1,35,-1
 461 1507 l 1,36,-1
 518 1507 l 1,0,-1
EndSplineSet
EndChar

StartChar: l
Encoding: 108 108 79
Width: 563
GlyphClass: 2
Flags: W
LayerCount: 2
Fore
SplineSet
489 1507 m 1,0,1
 479 1450 479 1450 473 1417 c 128,-1,2
 467 1384 467 1384 465 1374 c 2,3,-1
 258 344 l 2,4,5
 246 283 246 283 241 242 c 128,-1,6
 236 201 236 201 236 178 c 0,7,8
 236 82 236 82 348 82 c 0,9,10
 375 82 375 82 410.5 90 c 128,-1,11
 446 98 446 98 494 115 c 1,12,-1
 494 51 l 1,13,14
 406 14 406 14 337 -2 c 128,-1,15
 268 -18 268 -18 221 -18 c 0,16,17
 71 -18 71 -18 72 133 c 0,18,19
 72 178 72 178 109 369 c 2,20,-1
 305 1372 l 1,21,-1
 123 1393 l 1,22,-1
 123 1446 l 1,23,-1
 434 1507 l 1,24,-1
 489 1507 l 1,0,1
EndSplineSet
EndChar

StartChar: m
Encoding: 109 109 80
Width: 1669
GlyphClass: 2
Flags: W
LayerCount: 2
Fore
SplineSet
422 987 m 1,0,-1
 385 793 l 1,1,2
 623 988 623 988 772 987 c 0,3,4
 850 987 850 987 893 940 c 128,-1,5
 936 893 936 893 938 801 c 1,6,7
 1161 987 1161 987 1313 987 c 0,8,9
 1387 987 1387 987 1434 941 c 128,-1,10
 1481 895 1481 895 1481 813 c 0,11,12
 1481 745 1481 745 1456 641 c 2,13,-1
 1386 324 l 2,14,15
 1376 283 1376 283 1370 249 c 128,-1,16
 1364 215 1364 215 1364 190 c 0,17,18
 1364 141 1364 141 1391.5 114.5 c 128,-1,19
 1419 88 1419 88 1468 88 c 0,20,21
 1511 88 1511 88 1583 106 c 1,22,-1
 1583 51 l 1,23,24
 1415 -12 1415 -12 1337 -12 c 0,25,26
 1187 -12 1187 -12 1188 111 c 0,27,28
 1188 146 1188 146 1204 221 c 2,29,-1
 1292 600 l 2,30,31
 1302 645 1302 645 1306.5 677 c 128,-1,32
 1311 709 1311 709 1311 731 c 0,33,34
 1311 862 1311 862 1210 862 c 0,35,36
 1151 862 1151 862 1077.5 821 c 128,-1,37
 1004 780 1004 780 932 696 c 1,38,-1
 799 0 l 1,39,-1
 629 0 l 1,40,-1
 752 600 l 2,41,42
 770 698 770 698 770 741 c 0,43,44
 770 798 770 798 740.5 830 c 128,-1,45
 711 862 711 862 657 862 c 0,46,47
 616 862 616 862 540.5 822 c 128,-1,48
 465 782 465 782 367 694 c 1,49,-1
 238 0 l 1,50,-1
 66 0 l 1,51,-1
 236 836 l 1,52,-1
 68 868 l 1,53,-1
 68 922 l 1,54,-1
 371 987 l 1,55,-1
 422 987 l 1,0,-1
EndSplineSet
EndChar

StartChar: n
Encoding: 110 110 81
Width: 1138
GlyphClass: 2
Flags: W
LayerCount: 2
Fore
SplineSet
422 987 m 1,0,-1
 385 791 l 1,1,2
 508 889 508 889 604 938 c 128,-1,3
 700 987 700 987 782 987 c 0,4,5
 862 987 862 987 908 943 c 128,-1,6
 954 899 954 899 954 823 c 0,7,8
 954 784 954 784 946 740 c 128,-1,9
 938 696 938 696 926 641 c 2,10,-1
 856 324 l 2,11,12
 846 279 846 279 840 245 c 128,-1,13
 834 211 834 211 834 188 c 0,14,15
 834 88 834 88 940 88 c 0,16,17
 981 88 981 88 1053 106 c 1,18,-1
 1053 49 l 1,19,20
 893 -12 893 -12 807 -12 c 0,21,22
 657 -12 657 -12 657 111 c 0,23,24
 657 150 657 150 674 221 c 2,25,-1
 762 600 l 2,26,27
 772 645 772 645 776 678 c 128,-1,28
 780 711 780 711 780 731 c 0,29,30
 780 799 780 799 754.5 829.5 c 128,-1,31
 729 860 729 860 670 860 c 0,32,33
 617 860 617 860 539 819 c 128,-1,34
 461 778 461 778 367 692 c 1,35,-1
 240 0 l 1,36,-1
 66 0 l 1,37,-1
 236 838 l 1,38,-1
 68 868 l 1,39,-1
 68 920 l 1,40,-1
 371 987 l 1,41,-1
 422 987 l 1,0,-1
EndSplineSet
EndChar

StartChar: o
Encoding: 111 111 82
Width: 1028
GlyphClass: 2
Flags: W
LayerCount: 2
Fore
SplineSet
571 989 m 0,0,1
 731 989 731 989 825.5 881.5 c 128,-1,2
 920 774 920 774 920 588 c 0,3,4
 920 465 920 465 877 352.5 c 128,-1,5
 834 240 834 240 754 147 c 0,6,7
 609 -19 609 -19 393 -18 c 0,8,9
 233 -18 233 -18 139 86 c 128,-1,10
 45 190 45 190 45 371 c 0,11,12
 45 496 45 496 88 613.5 c 128,-1,13
 131 731 131 731 209 819 c 0,14,15
 360 989 360 989 571 989 c 0,0,1
545 909 m 0,16,17
 479 909 479 909 419.5 869 c 128,-1,18
 360 829 360 829 315 757.5 c 128,-1,19
 270 686 270 686 244.5 586.5 c 128,-1,20
 219 487 219 487 219 369 c 0,21,22
 219 222 219 222 272.5 144 c 128,-1,23
 326 66 326 66 418 66 c 0,24,25
 484 66 484 66 543 105.5 c 128,-1,26
 602 145 602 145 647 216 c 128,-1,27
 692 287 692 287 718.5 385 c 128,-1,28
 745 483 745 483 745 600 c 0,29,30
 745 754 745 754 692 831.5 c 128,-1,31
 639 909 639 909 545 909 c 0,16,17
EndSplineSet
EndChar

StartChar: p
Encoding: 112 112 83
Width: 1056
GlyphClass: 2
Flags: W
LayerCount: 2
Fore
SplineSet
399 987 m 1,0,-1
 375 862 l 1,1,2
 551 987 551 987 684 987 c 0,3,4
 807 987 807 987 875.5 896 c 128,-1,5
 944 805 944 805 944 631 c 0,6,7
 944 367 944 367 770 174 c 0,8,9
 692 88 692 88 588.5 40 c 128,-1,10
 485 -8 485 -8 381 -8 c 0,11,12
 305 -8 305 -8 223 31 c 1,13,-1
 156 -350 l 1,14,-1
 350 -385 l 1,15,-1
 350 -446 l 1,16,-1
 -141 -446 l 1,17,-1
 -141 -385 l 1,18,-1
 -20 -360 l 1,19,-1
 0 -338 l 1,20,-1
 215 854 l 1,21,-1
 55 874 l 1,22,-1
 55 926 l 1,23,-1
 346 987 l 1,24,-1
 399 987 l 1,0,-1
244 137 m 1,25,26
 336 82 336 82 420 82 c 0,27,28
 555 82 555 82 649 207 c 0,29,30
 674 240 674 240 697.5 287 c 128,-1,31
 721 334 721 334 737.5 389 c 128,-1,32
 754 444 754 444 764 504.5 c 128,-1,33
 774 565 774 565 774 627 c 0,34,35
 774 750 774 750 724 815.5 c 128,-1,36
 674 881 674 881 590 881 c 0,37,38
 500 881 500 881 360 772 c 1,39,-1
 244 137 l 1,25,26
EndSplineSet
EndChar

StartChar: q
Encoding: 113 113 84
Width: 1048
GlyphClass: 2
Flags: W
LayerCount: 2
Fore
SplineSet
946 997 m 1,0,1
 938 966 938 966 933 943 c 128,-1,2
 928 920 928 920 924 899 c 2,3,-1
 711 -346 l 1,4,-1
 907 -381 l 1,5,-1
 907 -446 l 1,6,-1
 403 -446 l 1,7,-1
 403 -381 l 1,8,-1
 528 -356 l 1,9,-1
 551 -332 l 1,10,-1
 633 141 l 1,11,12
 469 -13 469 -13 328 -12 c 0,13,14
 201 -12 201 -12 126 83 c 128,-1,15
 51 178 51 178 51 352 c 0,16,17
 51 592 51 592 186 768 c 0,18,19
 270 879 270 879 379.5 938 c 128,-1,20
 489 997 489 997 600 997 c 0,21,22
 645 997 645 997 693 983 c 128,-1,23
 741 969 741 969 795 946 c 1,24,-1
 848 997 l 1,25,-1
 946 997 l 1,0,1
643 909 m 2,26,27
 633 911 633 911 622.5 911 c 128,-1,28
 612 911 612 911 602 911 c 0,29,30
 465 911 465 911 354 780 c 0,31,32
 297 710 297 710 257 592.5 c 128,-1,33
 217 475 217 475 217 342 c 0,34,35
 217 231 217 231 268 168.5 c 128,-1,36
 319 106 319 106 408 106 c 0,37,38
 521 106 521 106 647 229 c 1,39,-1
 745 784 l 1,40,-1
 643 909 l 2,26,27
EndSplineSet
EndChar

StartChar: r
Encoding: 114 114 85
Width: 815
GlyphClass: 2
Flags: W
LayerCount: 2
Fore
SplineSet
403 987 m 1,0,-1
 338 707 l 1,1,2
 436 848 436 848 530.5 917.5 c 128,-1,3
 625 987 625 987 702 987 c 0,4,5
 755 987 755 987 786 957.5 c 128,-1,6
 817 928 817 928 817 881 c 0,7,8
 817 822 817 822 780 785 c 128,-1,9
 743 748 743 748 680 748 c 2,10,-1
 666 748 l 1,11,-1
 612 858 l 1,12,13
 536 829 536 829 485 793.5 c 128,-1,14
 434 758 434 758 400.5 712 c 128,-1,15
 367 666 367 666 346.5 608.5 c 128,-1,16
 326 551 326 551 313 481 c 2,17,-1
 229 0 l 1,18,-1
 57 0 l 1,19,-1
 227 838 l 1,20,-1
 59 868 l 1,21,-1
 59 920 l 1,22,-1
 362 987 l 1,23,-1
 403 987 l 1,0,-1
EndSplineSet
EndChar

StartChar: s
Encoding: 115 115 86
Width: 757
GlyphClass: 2
Flags: W
LayerCount: 2
Fore
SplineSet
459 874 m 1,0,1
 430 894 430 894 395 895 c 0,2,3
 334 895 334 895 293 856 c 128,-1,4
 252 817 252 817 252 758 c 0,5,6
 252 703 252 703 293 663 c 128,-1,7
 334 623 334 623 406 567 c 0,8,9
 451 532 451 532 489.5 502.5 c 128,-1,10
 528 473 528 473 555 442.5 c 128,-1,11
 582 412 582 412 597 377 c 128,-1,12
 612 342 612 342 612 297 c 0,13,14
 612 229 612 229 584.5 172 c 128,-1,15
 557 115 557 115 508 73 c 128,-1,16
 459 31 459 31 390.5 6.5 c 128,-1,17
 322 -18 322 -18 238 -18 c 0,18,19
 109 -18 109 -18 37 32 c 128,-1,20
 -35 82 -35 82 -35 162 c 0,21,22
 -35 209 -35 209 -5 237.5 c 128,-1,23
 25 266 25 266 72 266 c 0,24,25
 111 266 111 266 160 229 c 1,26,-1
 123 127 l 1,27,28
 172 55 172 55 270 55 c 0,29,30
 358 55 358 55 407.5 101 c 128,-1,31
 457 147 457 147 457 229 c 0,32,33
 457 288 457 288 419 329.5 c 128,-1,34
 381 371 381 371 315 420 c 0,35,36
 272 453 272 453 236.5 481.5 c 128,-1,37
 201 510 201 510 175.5 538.5 c 128,-1,38
 150 567 150 567 135.5 601 c 128,-1,39
 121 635 121 635 121 678 c 0,40,41
 121 741 121 741 148.5 797.5 c 128,-1,42
 176 854 176 854 223 896 c 128,-1,43
 270 938 270 938 334.5 962.5 c 128,-1,44
 399 987 399 987 473 987 c 0,45,46
 561 987 561 987 612.5 950 c 128,-1,47
 664 913 664 913 664 860 c 0,48,49
 664 817 664 817 633 788.5 c 128,-1,50
 602 760 602 760 545 756 c 1,51,-1
 459 874 l 1,0,1
EndSplineSet
EndChar

StartChar: t
Encoding: 116 116 87
Width: 681
GlyphClass: 2
Flags: W
LayerCount: 2
Fore
SplineSet
436 1186 m 1,0,-1
 393 952 l 1,1,-1
 688 952 l 1,2,-1
 688 864 l 1,3,-1
 377 864 l 1,4,-1
 270 317 l 2,5,6
 266 288 266 288 262 266 c 128,-1,7
 258 244 258 244 258 227 c 0,8,9
 258 100 258 100 383 100 c 0,10,11
 451 100 451 100 578 141 c 1,12,-1
 578 76 l 1,13,14
 369 -14 369 -14 262 -14 c 0,15,16
 90 -14 90 -14 90 172 c 0,17,18
 90 197 90 197 93 231.5 c 128,-1,19
 96 266 96 266 106 309 c 2,20,-1
 217 864 l 1,21,-1
 90 854 l 1,22,-1
 90 915 l 1,23,-1
 240 981 l 1,24,-1
 342 1186 l 1,25,-1
 436 1186 l 1,0,-1
EndSplineSet
EndChar

StartChar: u
Encoding: 117 117 88
Width: 1132
GlyphClass: 2
Flags: W
LayerCount: 2
Fore
SplineSet
416 961 m 1,0,-1
 287 365 l 2,1,2
 264 256 264 256 264 213 c 0,3,4
 264 160 264 160 296 130 c 128,-1,5
 328 100 328 100 383 100 c 0,6,7
 436 100 436 100 512 131 c 128,-1,8
 588 162 588 162 674 229 c 1,9,-1
 827 969 l 1,10,-1
 993 969 l 1,11,-1
 848 301 l 2,12,13
 840 262 840 262 833.5 228.5 c 128,-1,14
 827 195 827 195 827 162 c 256,15,16
 827 129 827 129 856 105.5 c 128,-1,17
 885 82 885 82 934 82 c 0,18,19
 971 82 971 82 1049 104 c 1,20,-1
 1049 47 l 1,21,22
 963 16 963 16 898.5 0 c 128,-1,23
 834 -16 834 -16 786 -16 c 0,24,25
 663 -16 663 -16 664 115 c 0,26,27
 664 125 664 125 664 134 c 128,-1,28
 664 143 664 143 666 154 c 1,29,30
 463 -16 463 -16 295 -16 c 0,31,32
 203 -16 203 -16 149.5 34 c 128,-1,33
 96 84 96 84 96 176 c 0,34,35
 96 223 96 223 113 299 c 2,36,-1
 231 838 l 1,37,-1
 61 868 l 1,38,-1
 61 922 l 1,39,-1
 383 989 l 1,40,-1
 416 961 l 1,0,-1
EndSplineSet
EndChar

StartChar: v
Encoding: 118 118 89
Width: 929
GlyphClass: 2
Flags: W
LayerCount: 2
Fore
SplineSet
195 991 m 2,0,1
 238 991 238 991 265.5 978 c 128,-1,2
 293 965 293 965 310.5 935 c 128,-1,3
 328 905 328 905 336 861 c 128,-1,4
 344 817 344 817 350 756 c 2,5,-1
 403 195 l 1,6,7
 520 345 520 345 598 469.5 c 128,-1,8
 676 594 676 594 717 700 c 1,9,-1
 678 950 l 1,10,11
 729 991 729 991 780 991 c 0,12,13
 833 991 833 991 861 960.5 c 128,-1,14
 889 930 889 930 889 874 c 0,15,16
 889 768 889 768 751.5 546 c 128,-1,17
 614 324 614 324 328 0 c 1,18,-1
 229 0 l 1,19,20
 258 55 258 55 258 133 c 0,21,22
 258 151 258 151 257 169.5 c 128,-1,23
 256 188 256 188 254 207 c 2,24,-1
 203 686 l 2,25,26
 195 758 195 758 181.5 801 c 128,-1,27
 168 844 168 844 141 860 c 1,28,-1
 -16 872 l 1,29,-1
 -16 924 l 1,30,-1
 190 991 l 1,31,-1
 195 991 l 2,0,1
EndSplineSet
EndChar

StartChar: w
Encoding: 119 119 90
Width: 1460
GlyphClass: 2
Flags: W
LayerCount: 2
Fore
SplineSet
307 989 m 1,0,-1
 352 182 l 1,1,2
 454 375 454 375 550.5 562.5 c 128,-1,3
 647 750 647 750 729 942 c 1,4,-1
 852 956 l 1,5,6
 864 671 864 671 907 154 c 1,7,8
 1036 326 1036 326 1120 461 c 128,-1,9
 1204 596 1204 596 1239 705 c 1,10,-1
 1198 944 l 1,11,12
 1237 991 1237 991 1303 991 c 0,13,14
 1354 991 1354 991 1381.5 960.5 c 128,-1,15
 1409 930 1409 930 1409 874 c 0,16,17
 1409 759 1409 759 1273 546.5 c 128,-1,18
 1137 334 1137 334 883 0 c 1,19,-1
 764 0 l 1,20,-1
 715 715 l 1,21,22
 674 627 674 627 577.5 448.5 c 128,-1,23
 481 270 481 270 324 0 c 1,24,-1
 190 0 l 1,25,-1
 207 45 l 1,26,-1
 152 856 l 1,27,-1
 0 874 l 1,28,-1
 0 924 l 1,29,-1
 236 993 l 1,30,-1
 307 989 l 1,0,-1
EndSplineSet
EndChar

StartChar: x
Encoding: 120 120 91
Width: 976
GlyphClass: 2
Flags: W
LayerCount: 2
Fore
SplineSet
264 993 m 1,0,1
 270 993 270 993 275.5 994 c 128,-1,2
 281 995 281 995 287 995 c 0,3,4
 332 995 332 995 361.5 969.5 c 128,-1,5
 391 944 391 944 413.5 893 c 128,-1,6
 436 842 436 842 456.5 764 c 128,-1,7
 477 686 477 686 504 582 c 1,8,9
 707 994 707 994 895 993 c 0,10,11
 944 993 944 993 978 959.5 c 128,-1,12
 1012 926 1012 926 1012 879 c 0,13,14
 1012 805 1012 805 911 764 c 1,15,-1
 823 844 l 1,16,17
 684 807 684 807 549 494 c 1,18,19
 580 390 580 390 602.5 314 c 128,-1,20
 625 238 625 238 649.5 187.5 c 128,-1,21
 674 137 674 137 703.5 112.5 c 128,-1,22
 733 88 733 88 780 88 c 0,23,24
 811 88 811 88 889 111 c 1,25,-1
 889 47 l 1,26,27
 742 -12 742 -12 659 -12 c 0,28,29
 606 -12 606 -12 571.5 11.5 c 128,-1,30
 537 35 537 35 512 85 c 128,-1,31
 487 135 487 135 466.5 213 c 128,-1,32
 446 291 446 291 422 399 c 1,33,34
 322 188 322 188 227.5 86 c 128,-1,35
 133 -16 133 -16 31 -16 c 0,36,37
 -28 -16 -28 -16 -62 14.5 c 128,-1,38
 -96 45 -96 45 -96 94 c 0,39,40
 -96 180 -96 180 4 199 c 1,41,-1
 98 111 l 1,42,43
 168 148 168 148 243.5 244 c 128,-1,44
 319 340 319 340 383 494 c 1,45,46
 342 635 342 635 305 723 c 128,-1,47
 268 811 268 811 227 850 c 1,48,-1
 57 872 l 1,49,-1
 57 922 l 1,50,-1
 264 993 l 1,51,-1
 264 993 l 1,0,1
EndSplineSet
EndChar

StartChar: y
Encoding: 121 121 92
Width: 972
GlyphClass: 2
Flags: W
LayerCount: 2
Fore
SplineSet
170 993 m 1,0,1
 176 995 176 995 183 995 c 128,-1,2
 190 995 190 995 197 995 c 0,3,4
 246 995 246 995 275.5 968.5 c 128,-1,5
 305 942 305 942 325.5 888 c 128,-1,6
 346 834 346 834 362.5 751 c 128,-1,7
 379 668 379 668 401 555 c 2,8,-1
 469 209 l 1,9,10
 535 375 535 375 613.5 567.5 c 128,-1,11
 692 760 692 760 791 987 c 1,12,-1
 829 987 l 1,13,-1
 991 934 l 1,14,-1
 991 891 l 1,15,-1
 887 829 l 1,16,17
 832 766 832 766 785.5 683 c 128,-1,18
 739 600 739 600 694 501.5 c 128,-1,19
 649 403 649 403 599 293.5 c 128,-1,20
 549 184 549 184 485 70 c 0,21,22
 344 -188 344 -188 207 -316 c 128,-1,23
 70 -444 70 -444 -59 -444 c 0,24,25
 -135 -444 -135 -444 -183 -404.5 c 128,-1,26
 -231 -365 -231 -365 -231 -309 c 0,27,28
 -231 -268 -231 -268 -201.5 -236.5 c 128,-1,29
 -172 -205 -172 -205 -121 -197 c 1,30,-1
 0 -317 l 1,31,32
 94 -311 94 -311 180 -221 c 128,-1,33
 266 -131 266 -131 358 43 c 1,34,-1
 352 39 l 1,35,-1
 225 655 l 2,36,37
 198 796 198 796 143 868 c 1,38,-1
 -31 883 l 1,39,-1
 -31 928 l 1,40,-1
 170 993 l 1,41,-1
 170 993 l 1,0,1
EndSplineSet
EndChar

StartChar: z
Encoding: 122 122 93
Width: 901
GlyphClass: 2
Flags: W
LayerCount: 2
Fore
SplineSet
889 938 m 1,0,-1
 182 150 l 1,1,-1
 381 201 l 1,2,3
 531 133 531 133 590 133 c 0,4,5
 668 133 668 133 717 207 c 1,6,-1
 604 332 l 1,7,8
 647 406 647 406 702 406 c 0,9,10
 745 406 745 406 774 372 c 128,-1,11
 803 338 803 338 803 283 c 0,12,13
 803 230 803 230 779.5 178.5 c 128,-1,14
 756 127 756 127 717 86 c 128,-1,15
 678 45 678 45 625.5 20.5 c 128,-1,16
 573 -4 573 -4 518 -4 c 0,17,18
 475 -4 475 -4 433 9.5 c 128,-1,19
 391 23 391 23 351 40 c 128,-1,20
 311 57 311 57 273.5 70.5 c 128,-1,21
 236 84 236 84 199 84 c 0,22,23
 166 84 166 84 133 66 c 1,24,-1
 84 -23 l 1,25,-1
 -29 39 l 1,26,-1
 676 829 l 1,27,-1
 473 784 l 1,28,29
 358 843 358 843 293 844 c 0,30,31
 211 844 211 844 164 778 c 1,32,-1
 272 647 l 1,33,34
 235 581 235 581 176 582 c 0,35,36
 133 582 133 582 106.5 613.5 c 128,-1,37
 80 645 80 645 80 702 c 0,38,39
 80 755 80 755 103.5 807.5 c 128,-1,40
 127 860 127 860 165 900 c 128,-1,41
 203 940 203 940 253 964.5 c 128,-1,42
 303 989 303 989 356 989 c 0,43,44
 403 989 403 989 443 972.5 c 128,-1,45
 483 956 483 956 524 934 c 0,46,47
 565 914 565 914 598 900.5 c 128,-1,48
 631 887 631 887 664 887 c 0,49,50
 689 887 689 887 725 903 c 1,51,-1
 764 1004 l 1,52,-1
 889 938 l 1,0,-1
EndSplineSet
EndChar

StartChar: braceleft
Encoding: 123 123 94
Width: 995
GlyphClass: 2
Flags: W
LayerCount: 2
Fore
SplineSet
856 1364 m 1,0,1
 778 1362 778 1362 728 1348.5 c 128,-1,2
 678 1335 678 1335 648 1306.5 c 128,-1,3
 618 1278 618 1278 606 1232 c 128,-1,4
 594 1186 594 1186 594 1118 c 2,5,-1
 594 952 l 2,6,7
 594 872 594 872 580.5 812 c 128,-1,8
 567 752 567 752 536.5 709 c 128,-1,9
 506 666 506 666 454.5 638 c 128,-1,10
 403 610 403 610 328 594 c 1,11,12
 473 561 473 561 534.5 481 c 128,-1,13
 596 401 596 401 596 248 c 2,14,-1
 596 78 l 2,15,16
 596 0 596 0 604 -51 c 128,-1,17
 612 -102 612 -102 639 -134 c 128,-1,18
 666 -166 666 -166 718 -179.5 c 128,-1,19
 770 -193 770 -193 856 -195 c 1,20,-1
 856 -274 l 1,21,-1
 805 -274 l 2,22,23
 696 -274 696 -274 624.5 -256 c 128,-1,24
 553 -238 553 -238 510 -194 c 128,-1,25
 467 -150 467 -150 449.5 -78 c 128,-1,26
 432 -6 432 -6 432 100 c 2,27,-1
 432 274 l 2,28,29
 432 426 432 426 377 487.5 c 128,-1,30
 322 549 322 549 180 549 c 2,31,-1
 133 549 l 1,32,-1
 133 639 l 1,33,34
 147 637 147 637 160.5 637 c 128,-1,35
 174 637 174 637 186 637 c 0,36,37
 323 637 323 637 376.5 697.5 c 128,-1,38
 430 758 430 758 430 901 c 2,39,-1
 430 1110 l 2,40,41
 430 1286 430 1286 524 1363 c 128,-1,42
 618 1440 618 1440 829 1440 c 2,43,-1
 856 1440 l 1,44,-1
 856 1364 l 1,0,1
EndSplineSet
EndChar

StartChar: bar
Encoding: 124 124 95
Width: 1024
GlyphClass: 2
Flags: W
LayerCount: 2
Fore
SplineSet
575 1565 m 1,0,-1
 575 -483 l 1,1,-1
 449 -483 l 1,2,-1
 449 1565 l 1,3,-1
 575 1565 l 1,0,-1
EndSplineSet
EndChar

StartChar: braceright
Encoding: 125 125 96
Width: 995
GlyphClass: 2
Flags: W
LayerCount: 2
Fore
SplineSet
158 1440 m 2,0,1
 369 1440 369 1440 463 1363 c 128,-1,2
 557 1286 557 1286 557 1110 c 2,3,-1
 557 901 l 2,4,5
 557 829 557 829 569.5 779 c 128,-1,6
 582 729 582 729 610.5 697.5 c 128,-1,7
 639 666 639 666 685 651.5 c 128,-1,8
 731 637 731 637 801 637 c 0,9,10
 813 637 813 637 826.5 637 c 128,-1,11
 840 637 840 637 854 639 c 1,12,-1
 854 549 l 1,13,-1
 807 549 l 2,14,15
 666 549 666 549 610.5 487.5 c 128,-1,16
 555 426 555 426 555 274 c 2,17,-1
 555 100 l 2,18,19
 555 -6 555 -6 537.5 -78 c 128,-1,20
 520 -150 520 -150 477 -194 c 128,-1,21
 434 -238 434 -238 362.5 -256 c 128,-1,22
 291 -274 291 -274 180 -274 c 2,23,-1
 131 -274 l 1,24,-1
 131 -195 l 1,25,26
 217 -193 217 -193 269.5 -179.5 c 128,-1,27
 322 -166 322 -166 348.5 -134 c 128,-1,28
 375 -102 375 -102 383 -51 c 128,-1,29
 391 0 391 0 391 78 c 2,30,-1
 391 248 l 2,31,32
 391 402 391 402 452.5 481.5 c 128,-1,33
 514 561 514 561 659 594 c 1,34,35
 581 610 581 610 530 638 c 128,-1,36
 479 666 479 666 448.5 709 c 128,-1,37
 418 752 418 752 405.5 812 c 128,-1,38
 393 872 393 872 393 952 c 2,39,-1
 393 1118 l 2,40,41
 393 1186 393 1186 381 1232 c 128,-1,42
 369 1278 369 1278 339 1306.5 c 128,-1,43
 309 1335 309 1335 258 1348.5 c 128,-1,44
 207 1362 207 1362 131 1364 c 1,45,-1
 131 1440 l 1,46,-1
 158 1440 l 2,0,1
EndSplineSet
EndChar

StartChar: asciitilde
Encoding: 126 126 97
Width: 1705
GlyphClass: 2
Flags: W
LayerCount: 2
Fore
SplineSet
1530 627 m 1,0,1
 1329 484 1329 484 1143 483 c 0,2,3
 1057 483 1057 483 952 518 c 0,4,5
 846 553 846 553 752.5 587 c 128,-1,6
 659 621 659 621 563 621 c 0,7,8
 471 621 471 621 380 580 c 128,-1,9
 289 539 289 539 178 461 c 1,10,-1
 178 594 l 1,11,12
 389 739 389 739 565 739 c 0,13,14
 645 739 645 739 715.5 718.5 c 128,-1,15
 786 698 786 698 856 674 c 0,16,17
 930 647 930 647 998.5 624.5 c 128,-1,18
 1067 602 1067 602 1145 602 c 0,19,20
 1237 602 1237 602 1329 642 c 128,-1,21
 1421 682 1421 682 1530 758 c 1,22,-1
 1530 627 l 1,0,1
EndSplineSet
EndChar

StartChar: exclamdown
Encoding: 161 161 98
Width: 692
GlyphClass: 2
Flags: W
LayerCount: 2
Fore
SplineSet
453 1399 m 0,0,1
 500 1399 500 1399 533.5 1364 c 128,-1,2
 567 1329 567 1329 567 1282 c 256,3,4
 567 1235 567 1235 533.5 1200 c 128,-1,5
 500 1165 500 1165 453 1165 c 0,6,7
 404 1165 404 1165 369 1199 c 128,-1,8
 334 1233 334 1233 334 1282 c 256,9,10
 334 1331 334 1331 369 1365 c 128,-1,11
 404 1399 404 1399 453 1399 c 0,0,1
467 1030 m 1,12,-1
 375 248 l 2,13,14
 359 115 359 115 329 48.5 c 128,-1,15
 299 -18 299 -18 215 -18 c 0,16,17
 125 -18 125 -18 125 80 c 0,18,19
 125 113 125 113 160 248 c 2,20,-1
 367 1030 l 1,21,-1
 467 1030 l 1,12,-1
EndSplineSet
EndChar

StartChar: dieresis
Encoding: 168 168 99
Width: 1024
GlyphClass: 2
Flags: W
LayerCount: 2
Fore
SplineSet
436 1417 m 0,0,1
 481 1417 481 1417 512 1386.5 c 128,-1,2
 543 1356 543 1356 543 1313 c 256,3,4
 543 1270 543 1270 511 1239 c 128,-1,5
 479 1208 479 1208 436 1208 c 0,6,7
 395 1208 395 1208 364.5 1239 c 128,-1,8
 334 1270 334 1270 334 1313 c 0,9,10
 334 1358 334 1358 364.5 1387.5 c 128,-1,11
 395 1417 395 1417 436 1417 c 0,0,1
819 1417 m 0,12,13
 864 1417 864 1417 894 1386.5 c 128,-1,14
 924 1356 924 1356 924 1313 c 256,15,16
 924 1270 924 1270 893 1239 c 128,-1,17
 862 1208 862 1208 819 1208 c 0,18,19
 778 1208 778 1208 746.5 1239 c 128,-1,20
 715 1270 715 1270 715 1313 c 0,21,22
 715 1358 715 1358 746.5 1387.5 c 128,-1,23
 778 1417 778 1417 819 1417 c 0,12,13
EndSplineSet
EndChar

StartChar: copyright
Encoding: 169 169 100
Width: 1843
GlyphClass: 2
Flags: W
LayerCount: 2
Fore
SplineSet
928 1487 m 0,0,1
 1084 1487 1084 1487 1231 1424.5 c 128,-1,2
 1378 1362 1378 1362 1489 1249 c 0,3,4
 1598 1138 1598 1138 1656 993 c 128,-1,5
 1714 848 1714 848 1714 688 c 0,6,7
 1714 534 1714 534 1651.5 390 c 128,-1,8
 1589 246 1589 246 1473 129 c 0,9,10
 1362 18 1362 18 1220.5 -38 c 128,-1,11
 1079 -94 1079 -94 915 -94 c 0,12,13
 763 -94 763 -94 622 -34.5 c 128,-1,14
 481 25 481 25 369 137 c 0,15,16
 254 252 254 252 195.5 394.5 c 128,-1,17
 137 537 137 537 137 696 c 0,18,19
 137 854 137 854 195.5 995.5 c 128,-1,20
 254 1137 254 1137 367 1251 c 0,21,22
 478 1364 478 1364 623 1425.5 c 128,-1,23
 768 1487 768 1487 928 1487 c 0,0,1
928 1403 m 0,24,25
 787 1403 787 1403 658.5 1348.5 c 128,-1,26
 530 1294 530 1294 432 1194 c 0,27,28
 332 1090 332 1090 279.5 964 c 128,-1,29
 227 838 227 838 227 696 c 0,30,31
 227 403 227 403 432 199 c 0,32,33
 536 97 536 97 660 44.5 c 128,-1,34
 784 -8 784 -8 926 -8 c 256,35,36
 1067 -8 1067 -8 1193 44 c 128,-1,37
 1319 96 1319 96 1417 199 c 0,38,39
 1517 303 1517 303 1570.5 430 c 128,-1,40
 1624 557 1624 557 1624 696 c 0,41,42
 1624 837 1624 837 1571 967.5 c 128,-1,43
 1518 1098 1518 1098 1419 1196 c 256,44,45
 1321 1294 1321 1294 1192 1348.5 c 128,-1,46
 1063 1403 1063 1403 928 1403 c 0,24,25
1247 883 m 1,47,-1
 1159 883 l 1,48,-1
 1128 1036 l 1,49,50
 1052 1081 1052 1081 969 1081 c 0,51,52
 895 1081 895 1081 833.5 1052.5 c 128,-1,53
 772 1024 772 1024 727 973 c 128,-1,54
 682 922 682 922 656.5 850 c 128,-1,55
 631 778 631 778 631 694 c 256,56,57
 631 610 631 610 656.5 538.5 c 128,-1,58
 682 467 682 467 726 414.5 c 128,-1,59
 770 362 770 362 829.5 332.5 c 128,-1,60
 889 303 889 303 958 303 c 0,61,62
 995 303 995 303 1038 314.5 c 128,-1,63
 1081 326 1081 326 1133 344 c 1,64,-1
 1159 516 l 1,65,-1
 1247 516 l 1,66,-1
 1247 260 l 1,67,68
 1175 235 1175 235 1099.5 222 c 128,-1,69
 1024 209 1024 209 946 209 c 0,70,71
 837 209 837 209 746 245 c 128,-1,72
 655 281 655 281 589.5 344.5 c 128,-1,73
 524 408 524 408 488.5 497 c 128,-1,74
 453 586 453 586 453 692 c 256,75,76
 453 798 453 798 488.5 887.5 c 128,-1,77
 524 977 524 977 590.5 1041.5 c 128,-1,78
 657 1106 657 1106 750.5 1141 c 128,-1,79
 844 1176 844 1176 958 1176 c 0,80,81
 1024 1176 1024 1176 1096.5 1164.5 c 128,-1,82
 1169 1153 1169 1153 1247 1128 c 1,83,-1
 1247 883 l 1,47,-1
EndSplineSet
EndChar

StartChar: guillemotleft
Encoding: 171 171 101
Width: 905
GlyphClass: 2
Flags: W
LayerCount: 2
Fore
SplineSet
420 711 m 1,0,-1
 137 492 l 1,1,-1
 336 270 l 1,2,-1
 309 137 l 1,3,-1
 27 410 l 1,4,-1
 57 573 l 1,5,-1
 446 846 l 1,6,-1
 420 711 l 1,0,-1
825 711 m 1,7,-1
 543 492 l 1,8,-1
 739 270 l 1,9,-1
 715 137 l 1,10,-1
 432 410 l 1,11,-1
 463 573 l 1,12,-1
 850 846 l 1,13,-1
 825 711 l 1,7,-1
EndSplineSet
EndChar

StartChar: acute
Encoding: 180 180 102
Width: 1024
GlyphClass: 2
Flags: W
LayerCount: 2
Fore
SplineSet
993 1507 m 1,0,-1
 618 1118 l 1,1,-1
 518 1118 l 1,2,-1
 791 1507 l 1,3,-1
 993 1507 l 1,0,-1
EndSplineSet
EndChar

StartChar: guillemotright
Encoding: 187 187 103
Width: 905
GlyphClass: 2
Flags: W
LayerCount: 2
Fore
SplineSet
408 573 m 1,0,-1
 377 410 l 1,1,-1
 -12 137 l 1,2,-1
 12 270 l 1,3,-1
 295 492 l 1,4,-1
 98 711 l 1,5,-1
 123 846 l 1,6,-1
 408 573 l 1,0,-1
811 573 m 1,7,-1
 780 410 l 1,8,-1
 391 137 l 1,9,-1
 418 270 l 1,10,-1
 700 492 l 1,11,-1
 502 711 l 1,12,-1
 528 846 l 1,13,-1
 811 573 l 1,7,-1
EndSplineSet
EndChar

StartChar: questiondown
Encoding: 191 191 104
Width: 995
GlyphClass: 2
Flags: W
LayerCount: 2
Fore
SplineSet
659 1399 m 256,0,1
 706 1399 706 1399 741 1364 c 128,-1,2
 776 1329 776 1329 776 1282 c 256,3,4
 776 1235 776 1235 741.5 1200 c 128,-1,5
 707 1165 707 1165 659 1165 c 0,6,7
 610 1165 610 1165 576.5 1199 c 128,-1,8
 543 1233 543 1233 543 1282 c 256,9,10
 543 1331 543 1331 577.5 1365 c 128,-1,11
 612 1399 612 1399 659 1399 c 256,0,1
676 1030 m 1,12,-1
 618 731 l 1,13,14
 432 665 432 665 339 551.5 c 128,-1,15
 246 438 246 438 246 291 c 0,16,17
 246 76 246 76 487 76 c 2,18,-1
 494 76 l 1,19,-1
 616 279 l 2,20,21
 626 281 626 281 635.5 281 c 128,-1,22
 645 281 645 281 653 281 c 0,23,24
 757 281 757 281 758 201 c 0,25,26
 758 158 758 158 733.5 118 c 128,-1,27
 709 78 709 78 665 47 c 128,-1,28
 621 16 621 16 558.5 -1 c 128,-1,29
 496 -18 496 -18 420 -18 c 0,30,31
 246 -18 246 -18 151.5 60.5 c 128,-1,32
 57 139 57 139 57 274 c 0,33,34
 57 608 57 608 524 791 c 1,35,-1
 569 1030 l 1,36,-1
 676 1030 l 1,12,-1
EndSplineSet
EndChar

StartChar: dotlessi
Encoding: 305 305 119
Width: 587
GlyphClass: 2
Flags: W
LayerCount: 2
Fore
SplineSet
424 987 m 1,0,-1
 276 221 l 2,1,2
 270 186 270 186 270 170 c 0,3,4
 270 90 270 90 369 90 c 0,5,6
 424 90 424 90 520 121 c 1,7,-1
 520 57 l 1,8,9
 348 -15 348 -15 231 -14 c 0,10,11
 100 -14 100 -14 100 121 c 0,12,13
 100 160 100 160 113 227 c 2,14,-1
 233 838 l 1,15,-1
 68 868 l 1,16,-1
 68 922 l 1,17,-1
 371 987 l 1,18,-1
 424 987 l 1,0,-1
EndSplineSet
EndChar

StartChar: tilde
Encoding: 732 732 120
Width: 1024
GlyphClass: 2
Flags: W
LayerCount: 2
Fore
SplineSet
971 1450 m 1,0,1
 957 1333 957 1333 894 1268.5 c 128,-1,2
 831 1204 831 1204 754 1204 c 0,3,4
 709 1204 709 1204 668 1220.5 c 128,-1,5
 627 1237 627 1237 592 1255.5 c 128,-1,6
 557 1274 557 1274 527.5 1290.5 c 128,-1,7
 498 1307 498 1307 477 1307 c 0,8,9
 442 1307 442 1307 413.5 1272 c 128,-1,10
 385 1237 385 1237 381 1174 c 1,11,-1
 293 1174 l 1,12,13
 311 1297 311 1297 367.5 1358 c 128,-1,14
 424 1419 424 1419 514 1419 c 0,15,16
 555 1419 555 1419 592 1402.5 c 128,-1,17
 629 1386 629 1386 661.5 1366 c 128,-1,18
 694 1346 694 1346 724 1329.5 c 128,-1,19
 754 1313 754 1313 780 1313 c 0,20,21
 864 1313 864 1313 885 1450 c 1,22,-1
 971 1450 l 1,0,1
EndSplineSet
EndChar

StartChar: emdash
Encoding: 8212 8212 121
Width: 2048
GlyphClass: 2
Flags: W
LayerCount: 2
Fore
SplineSet
2005 430 m 1,0,-1
 -39 430 l 1,1,-1
 -14 555 l 1,2,-1
 2030 555 l 1,3,-1
 2005 430 l 1,0,-1
EndSplineSet
EndChar

StartChar: quoteleft
Encoding: 8216 8216 122
Width: 411
GlyphClass: 2
Flags: W
LayerCount: 2
Fore
SplineSet
504 1460 m 1,0,1
 391 1356 391 1356 332.5 1269 c 128,-1,2
 274 1182 274 1182 274 1102 c 2,3,-1
 274 1098 l 1,4,-1
 406 1098 l 1,5,6
 420 1071 420 1071 420 1044 c 0,7,8
 420 991 420 991 379 948 c 128,-1,9
 338 905 338 905 274 905 c 0,10,11
 215 905 215 905 179 941 c 128,-1,12
 143 977 143 977 143 1042 c 0,13,14
 143 1134 143 1134 211 1242 c 128,-1,15
 279 1350 279 1350 416 1460 c 1,16,-1
 504 1460 l 1,0,1
EndSplineSet
EndChar

StartChar: quoteright
Encoding: 8217 8217 123
Width: 411
GlyphClass: 2
Flags: W
LayerCount: 2
Fore
SplineSet
104 905 m 1,0,1
 225 1016 225 1016 279.5 1102 c 128,-1,2
 334 1188 334 1188 334 1260 c 2,3,-1
 334 1268 l 1,4,-1
 203 1268 l 1,5,6
 189 1295 189 1295 188 1321 c 0,7,8
 188 1374 188 1374 230 1417 c 128,-1,9
 272 1460 272 1460 334 1460 c 0,10,11
 393 1460 393 1460 429 1423 c 128,-1,12
 465 1386 465 1386 465 1325 c 0,13,14
 465 1229 465 1229 397.5 1122.5 c 128,-1,15
 330 1016 330 1016 193 905 c 1,16,-1
 104 905 l 1,0,1
EndSplineSet
EndChar

StartChar: quotedblleft
Encoding: 8220 8220 124
Width: 825
GlyphClass: 2
Flags: W
LayerCount: 2
Fore
SplineSet
504 1460 m 1,0,1
 391 1356 391 1356 332.5 1269 c 128,-1,2
 274 1182 274 1182 274 1102 c 2,3,-1
 274 1098 l 1,4,-1
 406 1098 l 1,5,6
 420 1071 420 1071 420 1044 c 0,7,8
 420 991 420 991 379 948 c 128,-1,9
 338 905 338 905 274 905 c 0,10,11
 215 905 215 905 179 941 c 128,-1,12
 143 977 143 977 143 1042 c 0,13,14
 143 1134 143 1134 211 1242 c 128,-1,15
 279 1350 279 1350 416 1460 c 1,16,-1
 504 1460 l 1,0,1
918 1460 m 1,17,18
 799 1349 799 1349 743.5 1263.5 c 128,-1,19
 688 1178 688 1178 688 1106 c 2,20,-1
 688 1098 l 1,21,-1
 819 1098 l 1,22,23
 833 1071 833 1071 834 1044 c 0,24,25
 834 991 834 991 792 948 c 128,-1,26
 750 905 750 905 686 905 c 0,27,28
 627 905 627 905 592 941 c 128,-1,29
 557 977 557 977 557 1042 c 0,30,31
 557 1134 557 1134 624.5 1242 c 128,-1,32
 692 1350 692 1350 829 1460 c 1,33,-1
 918 1460 l 1,17,18
EndSplineSet
EndChar

StartChar: quotedblright
Encoding: 8221 8221 125
Width: 825
GlyphClass: 2
Flags: W
LayerCount: 2
Fore
SplineSet
104 905 m 1,0,1
 225 1016 225 1016 279.5 1102 c 128,-1,2
 334 1188 334 1188 334 1260 c 2,3,-1
 334 1268 l 1,4,-1
 203 1268 l 1,5,6
 189 1295 189 1295 188 1321 c 0,7,8
 188 1374 188 1374 230 1417 c 128,-1,9
 272 1460 272 1460 334 1460 c 0,10,11
 393 1460 393 1460 429 1423 c 128,-1,12
 465 1386 465 1386 465 1325 c 0,13,14
 465 1229 465 1229 397.5 1122.5 c 128,-1,15
 330 1016 330 1016 193 905 c 1,16,-1
 104 905 l 1,0,1
518 905 m 1,17,18
 639 1016 639 1016 693.5 1102 c 128,-1,19
 748 1188 748 1188 748 1260 c 2,20,-1
 748 1268 l 1,21,-1
 614 1268 l 1,22,23
 600 1295 600 1295 600 1321 c 0,24,25
 600 1374 600 1374 643 1417 c 128,-1,26
 686 1460 686 1460 748 1460 c 0,27,28
 807 1460 807 1460 842 1423 c 128,-1,29
 877 1386 877 1386 877 1325 c 0,30,31
 877 1229 877 1229 810 1122.5 c 128,-1,32
 743 1016 743 1016 606 905 c 1,33,-1
 518 905 l 1,17,18
EndSplineSet
EndChar

StartChar: bullet
Encoding: 8226 8226 126
Width: 1208
GlyphClass: 2
Flags: W
LayerCount: 2
Fore
SplineSet
307 762 m 256,0,1
 307 823 307 823 330.5 876.5 c 128,-1,2
 354 930 354 930 394 970 c 128,-1,3
 434 1010 434 1010 488.5 1033.5 c 128,-1,4
 543 1057 543 1057 604 1057 c 256,5,6
 665 1057 665 1057 718.5 1033.5 c 128,-1,7
 772 1010 772 1010 812 970 c 128,-1,8
 852 930 852 930 875.5 876.5 c 128,-1,9
 899 823 899 823 899 762 c 256,10,11
 899 701 899 701 875.5 647.5 c 128,-1,12
 852 594 852 594 812 553 c 128,-1,13
 772 512 772 512 718 488.5 c 128,-1,14
 664 465 664 465 602 465 c 256,15,16
 541 465 541 465 486.5 488.5 c 128,-1,17
 432 512 432 512 392 552 c 128,-1,18
 352 592 352 592 329.5 646.5 c 128,-1,19
 307 701 307 701 307 762 c 256,0,1
EndSplineSet
EndChar

StartChar: arrowright
Encoding: 8594 8594 127
Width: 1671
GlyphClass: 2
Flags: W
LayerCount: 2
Fore
SplineSet
1057 -33 m 1,0,-1
 942 96 l 1,1,-1
 1298 422 l 1,2,-1
 72 426 l 1,3,-1
 68 610 l 1,4,-1
 1298 610 l 1,5,-1
 942 936 l 1,6,-1
 1057 1065 l 1,7,-1
 1620 520 l 1,8,-1
 1620 512 l 1,9,-1
 1057 -33 l 1,0,-1
EndSplineSet
EndChar

StartChar: infinity
Encoding: 8734 8734 128
Width: 1607
GlyphClass: 2
Flags: W
LayerCount: 2
Fore
SplineSet
1214 475 m 0,0,1
 1312 475 1312 475 1367.5 531.5 c 128,-1,2
 1423 588 1423 588 1423 674 c 0,3,4
 1423 725 1423 725 1404.5 767 c 128,-1,5
 1386 809 1386 809 1354.5 838.5 c 128,-1,6
 1323 868 1323 868 1281 884.5 c 128,-1,7
 1239 901 1239 901 1190 901 c 256,8,9
 1141 901 1141 901 1100 891 c 128,-1,10
 1059 881 1059 881 1024 859.5 c 128,-1,11
 989 838 989 838 955.5 804 c 128,-1,12
 922 770 922 770 885 725 c 1,13,14
 924 676 924 676 964 630 c 128,-1,15
 1004 584 1004 584 1043.5 550 c 128,-1,16
 1083 516 1083 516 1126 495.5 c 128,-1,17
 1169 475 1169 475 1214 475 c 0,0,1
418 444 m 256,18,19
 467 444 467 444 507 454.5 c 128,-1,20
 547 465 547 465 582.5 486.5 c 128,-1,21
 618 508 618 508 652 541.5 c 128,-1,22
 686 575 686 575 723 621 c 1,23,24
 684 672 684 672 645 717 c 128,-1,25
 606 762 606 762 565 795.5 c 128,-1,26
 524 829 524 829 481 849.5 c 128,-1,27
 438 870 438 870 393 870 c 0,28,29
 295 870 295 870 239.5 814 c 128,-1,30
 184 758 184 758 184 672 c 0,31,32
 184 621 184 621 202.5 579 c 128,-1,33
 221 537 221 537 253 507 c 128,-1,34
 285 477 285 477 327 460.5 c 128,-1,35
 369 444 369 444 418 444 c 256,18,19
1210 1032 m 0,36,37
 1278 1032 1278 1032 1336.5 1006.5 c 128,-1,38
 1395 981 1395 981 1437 935 c 128,-1,39
 1479 889 1479 889 1503.5 824.5 c 128,-1,40
 1528 760 1528 760 1528 684 c 0,41,42
 1528 604 1528 604 1502.5 536.5 c 128,-1,43
 1477 469 1477 469 1431.5 420 c 128,-1,44
 1386 371 1386 371 1321.5 342 c 128,-1,45
 1257 313 1257 313 1182 313 c 0,46,47
 1114 313 1114 313 1056.5 333.5 c 128,-1,48
 999 354 999 354 949 388 c 128,-1,49
 899 422 899 422 855 466 c 128,-1,50
 811 510 811 510 772 559 c 1,51,52
 684 426 684 426 591 369.5 c 128,-1,53
 498 313 498 313 399 313 c 0,54,55
 331 313 331 313 273 339 c 128,-1,56
 215 365 215 365 172 411 c 128,-1,57
 129 457 129 457 105.5 520.5 c 128,-1,58
 82 584 82 584 82 662 c 0,59,60
 82 742 82 742 106.5 809.5 c 128,-1,61
 131 877 131 877 177 926 c 128,-1,62
 223 975 223 975 286.5 1003.5 c 128,-1,63
 350 1032 350 1032 428 1032 c 0,64,65
 496 1032 496 1032 553 1011.5 c 128,-1,66
 610 991 610 991 659.5 957.5 c 128,-1,67
 709 924 709 924 753 880 c 128,-1,68
 797 836 797 836 836 786 c 1,69,70
 922 921 922 921 1016 976.5 c 128,-1,71
 1110 1032 1110 1032 1210 1032 c 0,36,37
EndSplineSet
EndChar
